%TF.GenerationSoftware,KiCad,Pcbnew,7.0.1*%
%TF.CreationDate,2023-04-09T11:27:42-07:00*%
%TF.ProjectId,RS485-Module,52533438-352d-44d6-9f64-756c652e6b69,rev?*%
%TF.SameCoordinates,Original*%
%TF.FileFunction,Paste,Top*%
%TF.FilePolarity,Positive*%
%FSLAX46Y46*%
G04 Gerber Fmt 4.6, Leading zero omitted, Abs format (unit mm)*
G04 Created by KiCad (PCBNEW 7.0.1) date 2023-04-09 11:27:42*
%MOMM*%
%LPD*%
G01*
G04 APERTURE LIST*
%ADD10R,1.295400X0.558800*%
%ADD11R,1.020000X0.940000*%
%ADD12R,1.100000X1.000000*%
%ADD13R,0.965200X1.295400*%
%ADD14R,1.500000X0.600000*%
%ADD15R,1.800000X1.200000*%
%ADD16R,1.460500X0.558800*%
%ADD17R,0.940000X1.020000*%
%ADD18R,0.685800X0.609600*%
G04 APERTURE END LIST*
D10*
%TO.C,D2*%
X170751500Y-106934000D03*
X168846500Y-107884001D03*
X168846500Y-105983999D03*
%TD*%
D11*
%TO.C,R6*%
X166243000Y-107033000D03*
X166243000Y-108613000D03*
%TD*%
D12*
%TO.C,C1*%
X152234000Y-105156000D03*
X150534000Y-105156000D03*
%TD*%
D13*
%TO.C,D1*%
X172085000Y-97790000D03*
X175133000Y-97790000D03*
%TD*%
D14*
%TO.C,P1*%
X145552000Y-95306000D03*
X145552000Y-96306000D03*
X145552000Y-97306000D03*
X145552000Y-98306000D03*
X145552000Y-99306000D03*
X145552000Y-100306000D03*
X145552000Y-101306000D03*
X145552000Y-102306000D03*
D15*
X141652000Y-103606000D03*
X141652000Y-94006000D03*
%TD*%
D16*
%TO.C,U1*%
X152469850Y-107823000D03*
X152469850Y-109093000D03*
X152469850Y-110363000D03*
X152469850Y-111633000D03*
X157918150Y-111633000D03*
X157918150Y-110363000D03*
X157918150Y-109093000D03*
X157918150Y-107823000D03*
%TD*%
D11*
%TO.C,R7*%
X166196092Y-112169000D03*
X166196092Y-110589000D03*
%TD*%
D17*
%TO.C,R5*%
X161008000Y-112268000D03*
X162588000Y-112268000D03*
%TD*%
%TO.C,R4*%
X161008000Y-110490000D03*
X162588000Y-110490000D03*
%TD*%
%TO.C,R3*%
X161008000Y-108712000D03*
X162588000Y-108712000D03*
%TD*%
%TO.C,R2*%
X161008000Y-106934000D03*
X162588000Y-106934000D03*
%TD*%
%TO.C,R1*%
X166596000Y-97790000D03*
X168176000Y-97790000D03*
%TD*%
D18*
%TO.C,J8*%
X173253400Y-112649000D03*
X174371000Y-112649000D03*
%TD*%
%TO.C,J7*%
X173304200Y-105156000D03*
X174421800Y-105156000D03*
%TD*%
%TO.C,J6*%
X173304200Y-111125000D03*
X174421800Y-111125000D03*
%TD*%
%TO.C,J5*%
X173304200Y-108077000D03*
X174421800Y-108077000D03*
%TD*%
%TO.C,J4*%
X173304200Y-109601000D03*
X174421800Y-109601000D03*
%TD*%
%TO.C,J3*%
X173304200Y-106680000D03*
X174421800Y-106680000D03*
%TD*%
%TO.C,J2*%
X173253400Y-114173000D03*
X174371000Y-114173000D03*
%TD*%
%TO.C,J1*%
X173304200Y-103632000D03*
X174421800Y-103632000D03*
%TD*%
D10*
%TO.C,D3*%
X168973500Y-110682999D03*
X168973500Y-112583001D03*
X170878500Y-111633000D03*
%TD*%
M02*
