%TF.GenerationSoftware,KiCad,Pcbnew,7.0.1*%
%TF.CreationDate,2023-04-09T11:27:42-07:00*%
%TF.ProjectId,RS485-Module,52533438-352d-44d6-9f64-756c652e6b69,rev?*%
%TF.SameCoordinates,Original*%
%TF.FileFunction,Copper,L1,Top*%
%TF.FilePolarity,Positive*%
%FSLAX46Y46*%
G04 Gerber Fmt 4.6, Leading zero omitted, Abs format (unit mm)*
G04 Created by KiCad (PCBNEW 7.0.1) date 2023-04-09 11:27:42*
%MOMM*%
%LPD*%
G01*
G04 APERTURE LIST*
%TA.AperFunction,SMDPad,CuDef*%
%ADD10R,1.295400X0.558800*%
%TD*%
%TA.AperFunction,SMDPad,CuDef*%
%ADD11R,1.020000X0.940000*%
%TD*%
%TA.AperFunction,SMDPad,CuDef*%
%ADD12R,1.100000X1.000000*%
%TD*%
%TA.AperFunction,SMDPad,CuDef*%
%ADD13R,0.965200X1.295400*%
%TD*%
%TA.AperFunction,SMDPad,CuDef*%
%ADD14R,1.500000X0.600000*%
%TD*%
%TA.AperFunction,SMDPad,CuDef*%
%ADD15R,1.800000X1.200000*%
%TD*%
%TA.AperFunction,SMDPad,CuDef*%
%ADD16R,1.460500X0.558800*%
%TD*%
%TA.AperFunction,SMDPad,CuDef*%
%ADD17R,0.940000X1.020000*%
%TD*%
%TA.AperFunction,ComponentPad*%
%ADD18C,1.270000*%
%TD*%
%TA.AperFunction,ComponentPad*%
%ADD19C,3.810000*%
%TD*%
%TA.AperFunction,ComponentPad*%
%ADD20R,1.650000X1.650000*%
%TD*%
%TA.AperFunction,ComponentPad*%
%ADD21C,1.650000*%
%TD*%
%TA.AperFunction,SMDPad,CuDef*%
%ADD22R,0.685800X0.609600*%
%TD*%
%TA.AperFunction,ViaPad*%
%ADD23C,0.508000*%
%TD*%
%TA.AperFunction,Conductor*%
%ADD24C,0.254000*%
%TD*%
G04 APERTURE END LIST*
D10*
%TO.P,D2,3*%
%TO.N,Earth*%
X170751500Y-106934000D03*
%TO.P,D2,2*%
%TO.N,B*%
X168846500Y-107884001D03*
%TO.P,D2,1*%
%TO.N,A*%
X168846500Y-105983999D03*
%TD*%
D11*
%TO.P,R6,2*%
%TO.N,A*%
X166243000Y-107033000D03*
%TO.P,R6,1*%
%TO.N,B*%
X166243000Y-108613000D03*
%TD*%
D12*
%TO.P,C1,1*%
%TO.N,3.3V*%
X152234000Y-105156000D03*
%TO.P,C1,2*%
%TO.N,Earth*%
X150534000Y-105156000D03*
%TD*%
D13*
%TO.P,D1,1,1*%
%TO.N,Net-(D1-Pad1)*%
X172085000Y-97790000D03*
%TO.P,D1,2,2*%
%TO.N,3.3V*%
X175133000Y-97790000D03*
%TD*%
D14*
%TO.P,P1,1,1*%
%TO.N,3.3V*%
X145552000Y-95306000D03*
%TO.P,P1,2,2*%
%TO.N,MCU_TX*%
X145552000Y-96306000D03*
%TO.P,P1,3,3*%
%TO.N,MCU_RX*%
X145552000Y-97306000D03*
%TO.P,P1,4,4*%
%TO.N,3.3V*%
X145552000Y-98306000D03*
%TO.P,P1,5,5*%
X145552000Y-99306000D03*
%TO.P,P1,6,6*%
%TO.N,Earth*%
X145552000Y-100306000D03*
%TO.P,P1,7,7*%
X145552000Y-101306000D03*
%TO.P,P1,8,8*%
X145552000Y-102306000D03*
D15*
%TO.P,P1,S1*%
%TO.N,N/C*%
X141652000Y-103606000D03*
%TO.P,P1,S2*%
X141652000Y-94006000D03*
%TD*%
D16*
%TO.P,U1,1,VCC*%
%TO.N,3.3V*%
X152469850Y-107823000D03*
%TO.P,U1,2,R*%
%TO.N,MCU_RX*%
X152469850Y-109093000D03*
%TO.P,U1,3,D*%
%TO.N,MCU_TX*%
X152469850Y-110363000D03*
%TO.P,U1,4,GND*%
%TO.N,Earth*%
X152469850Y-111633000D03*
%TO.P,U1,5,Y*%
%TO.N,Net-(U1-Y)*%
X157918150Y-111633000D03*
%TO.P,U1,6,Z*%
%TO.N,Net-(U1-Z)*%
X157918150Y-110363000D03*
%TO.P,U1,7,B*%
%TO.N,Net-(U1-B)*%
X157918150Y-109093000D03*
%TO.P,U1,8,A*%
%TO.N,Net-(U1-A)*%
X157918150Y-107823000D03*
%TD*%
D11*
%TO.P,R7,1*%
%TO.N,Y*%
X166196092Y-112169000D03*
%TO.P,R7,2*%
%TO.N,Z*%
X166196092Y-110589000D03*
%TD*%
D17*
%TO.P,R5,1*%
%TO.N,Net-(U1-Y)*%
X161008000Y-112268000D03*
%TO.P,R5,2*%
%TO.N,Y*%
X162588000Y-112268000D03*
%TD*%
%TO.P,R4,1*%
%TO.N,Net-(U1-Z)*%
X161008000Y-110490000D03*
%TO.P,R4,2*%
%TO.N,Z*%
X162588000Y-110490000D03*
%TD*%
%TO.P,R3,1*%
%TO.N,Net-(U1-B)*%
X161008000Y-108712000D03*
%TO.P,R3,2*%
%TO.N,B*%
X162588000Y-108712000D03*
%TD*%
%TO.P,R2,1*%
%TO.N,Net-(U1-A)*%
X161008000Y-106934000D03*
%TO.P,R2,2*%
%TO.N,A*%
X162588000Y-106934000D03*
%TD*%
%TO.P,R1,1*%
%TO.N,Earth*%
X166596000Y-97790000D03*
%TO.P,R1,2*%
%TO.N,Net-(D1-Pad1)*%
X168176000Y-97790000D03*
%TD*%
D18*
%TO.P,P4,1*%
%TO.N,Net-(J3-B)*%
X185674000Y-104013000D03*
%TO.P,P4,2*%
%TO.N,Net-(J1-B)*%
X183134000Y-102743000D03*
%TO.P,P4,3*%
%TO.N,unconnected-(P4-Pad3)*%
X185674000Y-101473000D03*
%TO.P,P4,4*%
%TO.N,unconnected-(P4-Pad4)*%
X183134000Y-100203000D03*
%TO.P,P4,5*%
%TO.N,unconnected-(P4-Pad5)*%
X185674000Y-98933000D03*
%TO.P,P4,6*%
%TO.N,unconnected-(P4-Pad6)*%
X183134000Y-97663000D03*
%TO.P,P4,7*%
%TO.N,Net-(J5-B)*%
X185674000Y-96393000D03*
%TO.P,P4,8*%
%TO.N,Net-(J7-B)*%
X183134000Y-95123000D03*
D19*
%TO.P,P4,9*%
%TO.N,N/C*%
X192024000Y-105283000D03*
%TO.P,P4,10*%
X192024000Y-93853000D03*
%TD*%
D20*
%TO.P,P3,1,5*%
%TO.N,Z*%
X176784000Y-89408000D03*
D21*
%TO.P,P3,2,6*%
%TO.N,Y*%
X171704000Y-89408000D03*
%TD*%
D20*
%TO.P,P2,1,5*%
%TO.N,A*%
X163068000Y-89408000D03*
D21*
%TO.P,P2,2,6*%
%TO.N,B*%
X157988000Y-89408000D03*
%TD*%
D22*
%TO.P,J8,1,A*%
%TO.N,Y*%
X173253400Y-112649000D03*
%TO.P,J8,2,B*%
%TO.N,Net-(J7-B)*%
X174371000Y-112649000D03*
%TD*%
%TO.P,J7,1,A*%
%TO.N,A*%
X173304200Y-105156000D03*
%TO.P,J7,2,B*%
%TO.N,Net-(J7-B)*%
X174421800Y-105156000D03*
%TD*%
%TO.P,J6,1,A*%
%TO.N,Z*%
X173304200Y-111125000D03*
%TO.P,J6,2,B*%
%TO.N,Net-(J5-B)*%
X174421800Y-111125000D03*
%TD*%
%TO.P,J5,1,A*%
%TO.N,B*%
X173304200Y-108077000D03*
%TO.P,J5,2,B*%
%TO.N,Net-(J5-B)*%
X174421800Y-108077000D03*
%TD*%
%TO.P,J4,1,A*%
%TO.N,Z*%
X173304200Y-109601000D03*
%TO.P,J4,2,B*%
%TO.N,Net-(J3-B)*%
X174421800Y-109601000D03*
%TD*%
%TO.P,J3,1,A*%
%TO.N,B*%
X173304200Y-106680000D03*
%TO.P,J3,2,B*%
%TO.N,Net-(J3-B)*%
X174421800Y-106680000D03*
%TD*%
%TO.P,J2,1,A*%
%TO.N,Y*%
X173253400Y-114173000D03*
%TO.P,J2,2,B*%
%TO.N,Net-(J1-B)*%
X174371000Y-114173000D03*
%TD*%
%TO.P,J1,1,A*%
%TO.N,A*%
X173304200Y-103632000D03*
%TO.P,J1,2,B*%
%TO.N,Net-(J1-B)*%
X174421800Y-103632000D03*
%TD*%
D10*
%TO.P,D3,1*%
%TO.N,Z*%
X168973500Y-110682999D03*
%TO.P,D3,2*%
%TO.N,Y*%
X168973500Y-112583001D03*
%TO.P,D3,3*%
%TO.N,Earth*%
X170878500Y-111633000D03*
%TD*%
D23*
%TO.N,3.3V*%
X148717000Y-99314000D03*
X148717000Y-98298000D03*
X153289000Y-105156000D03*
%TO.N,Earth*%
X171831000Y-105283000D03*
%TO.N,Z*%
X164465000Y-110490000D03*
%TO.N,Y*%
X164338000Y-112268000D03*
%TO.N,B*%
X164211000Y-108712000D03*
%TO.N,Earth*%
X165354000Y-97790000D03*
%TO.N,3.3V*%
X176530000Y-97790000D03*
%TO.N,Net-(J7-B)*%
X177292000Y-112649000D03*
%TO.N,Net-(J5-B)*%
X178435000Y-111125000D03*
X178435000Y-108077000D03*
%TO.N,Net-(J7-B)*%
X177292000Y-105156000D03*
%TO.N,Earth*%
X172212000Y-111633000D03*
X152019000Y-113157000D03*
X150749000Y-111252000D03*
X147447000Y-101219000D03*
%TO.N,3.3V*%
X148844000Y-94107000D03*
%TO.N,Earth*%
X150495000Y-106426000D03*
X149225000Y-105156000D03*
%TO.N,3.3V*%
X152273000Y-106553000D03*
%TD*%
D24*
%TO.N,Earth*%
X171831000Y-106299000D02*
X171831000Y-105283000D01*
X170751500Y-106934000D02*
X171196000Y-106934000D01*
X171196000Y-106934000D02*
X171831000Y-106299000D01*
%TO.N,Z*%
X164465000Y-110490000D02*
X166370000Y-110490000D01*
%TO.N,Y*%
X164338000Y-112268000D02*
X166243000Y-112268000D01*
%TO.N,B*%
X164211000Y-108712000D02*
X166370000Y-108712000D01*
%TO.N,A*%
X162588000Y-106934000D02*
X162588000Y-89253000D01*
X162588000Y-89253000D02*
X162814000Y-89027000D01*
%TO.N,Earth*%
X166596000Y-97790000D02*
X165354000Y-97790000D01*
%TO.N,Net-(D1-Pad1)*%
X172085000Y-97790000D02*
X168148000Y-97790000D01*
%TO.N,3.3V*%
X175133000Y-97790000D02*
X176530000Y-97790000D01*
%TO.N,Net-(J1-B)*%
X174371000Y-114173000D02*
X179070000Y-114173000D01*
X179070000Y-114173000D02*
X187198000Y-106045000D01*
X187198000Y-106045000D02*
X187198000Y-103632000D01*
X187198000Y-103632000D02*
X186309000Y-102743000D01*
X186309000Y-102743000D02*
X183134000Y-102743000D01*
%TO.N,Net-(J7-B)*%
X174371000Y-112649000D02*
X177292000Y-112649000D01*
%TO.N,Net-(J5-B)*%
X174421800Y-111125000D02*
X178435000Y-111125000D01*
%TO.N,Net-(J3-B)*%
X174421800Y-109601000D02*
X180086000Y-109601000D01*
X180086000Y-109601000D02*
X185674000Y-104013000D01*
%TO.N,Net-(J5-B)*%
X174421800Y-108077000D02*
X178435000Y-108077000D01*
%TO.N,Net-(J3-B)*%
X177673000Y-106680000D02*
X180340000Y-104013000D01*
X174421800Y-106680000D02*
X177673000Y-106680000D01*
X180340000Y-104013000D02*
X185674000Y-104013000D01*
%TO.N,Net-(J7-B)*%
X174421800Y-105156000D02*
X177292000Y-105156000D01*
%TO.N,Net-(J1-B)*%
X174421800Y-103632000D02*
X177927000Y-103632000D01*
X183134000Y-102743000D02*
X178816000Y-102743000D01*
X178816000Y-102743000D02*
X177927000Y-103632000D01*
%TO.N,A*%
X172466000Y-104394000D02*
X173101000Y-105029000D01*
X168846500Y-105983999D02*
X169987001Y-105983999D01*
X169987001Y-105983999D02*
X171577000Y-104394000D01*
X171577000Y-104394000D02*
X172466000Y-104394000D01*
X172466000Y-104394000D02*
X173101000Y-103759000D01*
%TO.N,B*%
X172212000Y-107442000D02*
X172593000Y-107442000D01*
X172593000Y-107442000D02*
X172720000Y-107442000D01*
X173304200Y-106680000D02*
X173304200Y-106730800D01*
X173304200Y-106730800D02*
X172593000Y-107442000D01*
X172720000Y-107442000D02*
X173101000Y-107823000D01*
X171769999Y-107884001D02*
X172212000Y-107442000D01*
X168846500Y-107884001D02*
X171769999Y-107884001D01*
X166243000Y-108613000D02*
X167231000Y-108613000D01*
X168529000Y-107950000D02*
X168656000Y-107823000D01*
X167231000Y-108613000D02*
X167894000Y-107950000D01*
X167894000Y-107950000D02*
X168529000Y-107950000D01*
%TO.N,A*%
X166243000Y-107033000D02*
X167414000Y-107033000D01*
X167414000Y-107033000D02*
X168275000Y-106172000D01*
%TO.N,Z*%
X172466000Y-110363000D02*
X173228000Y-109601000D01*
X168973500Y-110682999D02*
X171257001Y-110682999D01*
X171257001Y-110682999D02*
X171577000Y-110363000D01*
X171577000Y-110363000D02*
X172466000Y-110363000D01*
X172466000Y-110363000D02*
X173101000Y-110998000D01*
%TO.N,Earth*%
X170878500Y-111633000D02*
X172212000Y-111633000D01*
%TO.N,Y*%
X172339000Y-113411000D02*
X172974000Y-114046000D01*
X172974000Y-114046000D02*
X173101000Y-114046000D01*
X168973500Y-112583001D02*
X170368001Y-112583001D01*
X170368001Y-112583001D02*
X171196000Y-113411000D01*
X171196000Y-113411000D02*
X172339000Y-113411000D01*
X172339000Y-113411000D02*
X172974000Y-112776000D01*
X166196092Y-112169000D02*
X168176000Y-112169000D01*
X168176000Y-112169000D02*
X168529000Y-112522000D01*
%TO.N,Z*%
X168973500Y-110682999D02*
X166435999Y-110682999D01*
%TO.N,Y*%
X162588000Y-112268000D02*
X164338000Y-112268000D01*
%TO.N,Z*%
X162588000Y-110490000D02*
X164465000Y-110490000D01*
%TO.N,B*%
X162588000Y-108712000D02*
X164211000Y-108712000D01*
%TO.N,A*%
X162588000Y-106934000D02*
X166370000Y-106934000D01*
%TO.N,Net-(U1-Y)*%
X159766000Y-112141000D02*
X160782000Y-112141000D01*
X157918150Y-111633000D02*
X159258000Y-111633000D01*
X159258000Y-111633000D02*
X159766000Y-112141000D01*
%TO.N,Net-(U1-Z)*%
X157918150Y-110363000D02*
X160909000Y-110363000D01*
%TO.N,Net-(U1-B)*%
X157918150Y-109093000D02*
X159639000Y-109093000D01*
X159639000Y-109093000D02*
X160020000Y-108712000D01*
X160020000Y-108712000D02*
X160782000Y-108712000D01*
%TO.N,Net-(U1-A)*%
X157918150Y-107823000D02*
X160020000Y-107823000D01*
X160020000Y-107823000D02*
X160655000Y-107188000D01*
%TO.N,Earth*%
X152469850Y-112706150D02*
X152019000Y-113157000D01*
X152469850Y-111633000D02*
X152469850Y-112706150D01*
X152469850Y-111633000D02*
X151130000Y-111633000D01*
X151130000Y-111633000D02*
X150749000Y-111252000D01*
X145552000Y-101306000D02*
X147360000Y-101306000D01*
X147360000Y-101306000D02*
X147447000Y-101219000D01*
X147447000Y-101219000D02*
X147447000Y-101600000D01*
X147447000Y-101600000D02*
X146685000Y-102362000D01*
X146915000Y-100306000D02*
X147447000Y-100838000D01*
X145552000Y-100306000D02*
X146915000Y-100306000D01*
X147447000Y-100838000D02*
X147447000Y-101219000D01*
X146685000Y-102362000D02*
X146304000Y-102362000D01*
X145529000Y-101232000D02*
X145529000Y-102121000D01*
X145552000Y-101209000D02*
X145529000Y-101232000D01*
X145552000Y-100306000D02*
X145552000Y-101209000D01*
%TO.N,3.3V*%
X145552000Y-99306000D02*
X148717000Y-99314000D01*
X145552000Y-98306000D02*
X148717000Y-98298000D01*
X145552000Y-95306000D02*
X147645000Y-95306000D01*
X147645000Y-95306000D02*
X148844000Y-94107000D01*
%TO.N,MCU_TX*%
X152469850Y-110363000D02*
X152920700Y-110363000D01*
X151384000Y-96266000D02*
X145796000Y-96266000D01*
X152920700Y-110363000D02*
X155194000Y-108089700D01*
X155194000Y-108089700D02*
X155194000Y-100076000D01*
X155194000Y-100076000D02*
X151384000Y-96266000D01*
%TO.N,MCU_RX*%
X154432000Y-100330000D02*
X151511000Y-97409000D01*
X152920700Y-109093000D02*
X154432000Y-107581700D01*
X152469850Y-109093000D02*
X152920700Y-109093000D01*
X154432000Y-107581700D02*
X154432000Y-100330000D01*
X151511000Y-97409000D02*
X145796000Y-97409000D01*
%TO.N,Earth*%
X150534000Y-106465000D02*
X150534000Y-106514000D01*
X150495000Y-106426000D02*
X150534000Y-106465000D01*
X150534000Y-106387000D02*
X150495000Y-106426000D01*
X150534000Y-105156000D02*
X150534000Y-106387000D01*
X149225000Y-105156000D02*
X149352000Y-105156000D01*
X150534000Y-105156000D02*
X149225000Y-105156000D01*
%TO.N,3.3V*%
X152234000Y-105156000D02*
X153289000Y-105156000D01*
X152234000Y-106592000D02*
X152234000Y-107862000D01*
X152273000Y-106553000D02*
X152234000Y-106592000D01*
X152234000Y-106514000D02*
X152273000Y-106553000D01*
X152234000Y-106338000D02*
X152234000Y-106514000D01*
X152234000Y-105156000D02*
X152234000Y-106338000D01*
%TD*%
%TA.AperFunction,Conductor*%
%TO.N,Earth*%
G36*
X172202172Y-110999939D02*
G01*
X172242400Y-111026819D01*
X172424481Y-111208900D01*
X172451361Y-111249128D01*
X172460800Y-111296580D01*
X172460800Y-111477669D01*
X172467209Y-111537284D01*
X172484603Y-111583918D01*
X172517504Y-111672131D01*
X172591896Y-111771506D01*
X172606816Y-111791436D01*
X172630672Y-111851025D01*
X172621538Y-111914558D01*
X172581861Y-111965013D01*
X172552955Y-111986652D01*
X172466704Y-112101868D01*
X172446987Y-112154731D01*
X172416409Y-112236717D01*
X172412837Y-112269946D01*
X172410000Y-112296331D01*
X172410000Y-112401218D01*
X172400561Y-112448671D01*
X172373681Y-112488899D01*
X172115400Y-112747181D01*
X172075172Y-112774061D01*
X172027719Y-112783500D01*
X171507281Y-112783500D01*
X171459828Y-112774061D01*
X171419600Y-112747181D01*
X171296500Y-112624081D01*
X171266250Y-112574718D01*
X171261708Y-112517002D01*
X171283863Y-112463515D01*
X171327886Y-112425915D01*
X171384181Y-112412400D01*
X171574024Y-112412400D01*
X171633575Y-112405997D01*
X171768289Y-112355752D01*
X171883388Y-112269588D01*
X171969552Y-112154489D01*
X172019797Y-112019775D01*
X172026200Y-111960224D01*
X172026200Y-111883000D01*
X169935787Y-111883000D01*
X169896626Y-111876654D01*
X169866620Y-111860957D01*
X169728685Y-111809510D01*
X169708813Y-111807373D01*
X169669073Y-111803101D01*
X169669069Y-111803101D01*
X168752116Y-111803101D01*
X168706468Y-111794393D01*
X168667232Y-111769493D01*
X168649136Y-111752500D01*
X168614151Y-111719646D01*
X168611354Y-111716935D01*
X168591795Y-111697375D01*
X168588606Y-111694902D01*
X168579716Y-111687310D01*
X168569045Y-111677289D01*
X168536999Y-111628166D01*
X168531113Y-111569811D01*
X168552704Y-111515278D01*
X168596942Y-111476769D01*
X168653927Y-111462898D01*
X169669072Y-111462898D01*
X169728683Y-111456490D01*
X169863531Y-111406195D01*
X169863532Y-111406193D01*
X169866621Y-111405042D01*
X169896626Y-111389346D01*
X169935787Y-111383000D01*
X172026200Y-111383000D01*
X172026200Y-111305776D01*
X172019797Y-111246224D01*
X171986830Y-111157834D01*
X171979979Y-111099046D01*
X172001156Y-111043780D01*
X172045537Y-111004624D01*
X172103012Y-110990500D01*
X172154719Y-110990500D01*
X172202172Y-110999939D01*
G37*
%TD.AperFunction*%
%TA.AperFunction,Conductor*%
G36*
X170939500Y-106700613D02*
G01*
X170984887Y-106746000D01*
X171001500Y-106808000D01*
X171001500Y-107060000D01*
X170984887Y-107122000D01*
X170939500Y-107167387D01*
X170877500Y-107184000D01*
X169808787Y-107184000D01*
X169769626Y-107177654D01*
X169739620Y-107161957D01*
X169601685Y-107110510D01*
X169581812Y-107108373D01*
X169542073Y-107104101D01*
X169542069Y-107104101D01*
X168529679Y-107104101D01*
X168473384Y-107090586D01*
X168429361Y-107052986D01*
X168407206Y-106999499D01*
X168411748Y-106941783D01*
X168441998Y-106892420D01*
X168534201Y-106800217D01*
X168574429Y-106773337D01*
X168621882Y-106763898D01*
X169542070Y-106763898D01*
X169542072Y-106763898D01*
X169601683Y-106757490D01*
X169736531Y-106707195D01*
X169736532Y-106707193D01*
X169739621Y-106706042D01*
X169769626Y-106690346D01*
X169808787Y-106684000D01*
X170877500Y-106684000D01*
X170939500Y-106700613D01*
G37*
%TD.AperFunction*%
%TA.AperFunction,Conductor*%
G36*
X172202172Y-105030939D02*
G01*
X172242400Y-105057819D01*
X172424481Y-105239900D01*
X172451361Y-105280128D01*
X172460800Y-105327580D01*
X172460800Y-105508669D01*
X172467209Y-105568284D01*
X172477963Y-105597116D01*
X172517504Y-105703131D01*
X172552309Y-105749624D01*
X172603754Y-105818346D01*
X172604271Y-105818733D01*
X172640844Y-105862496D01*
X172653960Y-105918000D01*
X172640844Y-105973504D01*
X172604271Y-106017267D01*
X172603754Y-106017653D01*
X172517504Y-106132868D01*
X172467209Y-106267716D01*
X172466206Y-106277049D01*
X172460863Y-106326749D01*
X172460800Y-106327331D01*
X172460800Y-106635417D01*
X172451361Y-106682870D01*
X172424481Y-106723098D01*
X172371819Y-106775760D01*
X172318777Y-106807143D01*
X172287063Y-106808157D01*
X172287179Y-106811828D01*
X172204082Y-106814439D01*
X172200188Y-106814500D01*
X172172524Y-106814500D01*
X172168515Y-106815006D01*
X172156884Y-106815921D01*
X172113057Y-106817298D01*
X172093720Y-106822916D01*
X172074680Y-106826859D01*
X172039173Y-106831347D01*
X172038728Y-106827834D01*
X172009503Y-106831734D01*
X171953452Y-106811017D01*
X171913599Y-106766490D01*
X171899200Y-106708493D01*
X171899200Y-106606776D01*
X171892797Y-106547224D01*
X171842552Y-106412510D01*
X171756388Y-106297411D01*
X171641289Y-106211247D01*
X171506575Y-106161002D01*
X171447024Y-106154600D01*
X171003180Y-106154600D01*
X170946885Y-106141085D01*
X170902862Y-106103485D01*
X170880707Y-106049998D01*
X170885249Y-105992282D01*
X170915499Y-105942919D01*
X171150895Y-105707524D01*
X171800599Y-105057819D01*
X171840828Y-105030939D01*
X171888281Y-105021500D01*
X172154719Y-105021500D01*
X172202172Y-105030939D01*
G37*
%TD.AperFunction*%
%TA.AperFunction,Conductor*%
G36*
X200851500Y-82821113D02*
G01*
X200896887Y-82866500D01*
X200913500Y-82928500D01*
X200913500Y-116461500D01*
X200896887Y-116523500D01*
X200851500Y-116568887D01*
X200789500Y-116585500D01*
X138300500Y-116585500D01*
X138238500Y-116568887D01*
X138193113Y-116523500D01*
X138176500Y-116461500D01*
X138176500Y-111936903D01*
X140089794Y-111936903D01*
X140099672Y-112244972D01*
X140148867Y-112549261D01*
X140236570Y-112844760D01*
X140361334Y-113126604D01*
X140361336Y-113126608D01*
X140361337Y-113126609D01*
X140521123Y-113390193D01*
X140713304Y-113631181D01*
X140934724Y-113845614D01*
X141181747Y-114029972D01*
X141450318Y-114181228D01*
X141736025Y-114296899D01*
X142034179Y-114375084D01*
X142339883Y-114414500D01*
X142570974Y-114414500D01*
X142570978Y-114414500D01*
X142620639Y-114411311D01*
X142801601Y-114399693D01*
X143104151Y-114340772D01*
X143396683Y-114243644D01*
X143674393Y-114109907D01*
X143932720Y-113941754D01*
X143938197Y-113937092D01*
X144028342Y-113860350D01*
X144167424Y-113741948D01*
X144360502Y-113529348D01*
X144374646Y-113513774D01*
X144374647Y-113513771D01*
X144374650Y-113513769D01*
X144550996Y-113260963D01*
X144693567Y-112987683D01*
X144700117Y-112969884D01*
X144800020Y-112698416D01*
X144849861Y-112480046D01*
X144868609Y-112397908D01*
X144898206Y-112091098D01*
X144891533Y-111883000D01*
X151239600Y-111883000D01*
X151239600Y-111960224D01*
X151246002Y-112019775D01*
X151296247Y-112154489D01*
X151382411Y-112269588D01*
X151497510Y-112355752D01*
X151632224Y-112405997D01*
X151691776Y-112412400D01*
X152219850Y-112412400D01*
X152219850Y-111883000D01*
X152719850Y-111883000D01*
X152719850Y-112412400D01*
X153247924Y-112412400D01*
X153307475Y-112405997D01*
X153442189Y-112355752D01*
X153557288Y-112269588D01*
X153643452Y-112154489D01*
X153693697Y-112019775D01*
X153700095Y-111960269D01*
X156687400Y-111960269D01*
X156692352Y-112006332D01*
X156693809Y-112019883D01*
X156744104Y-112154731D01*
X156830354Y-112269946D01*
X156945569Y-112356196D01*
X157080417Y-112406491D01*
X157140027Y-112412900D01*
X158696272Y-112412899D01*
X158755883Y-112406491D01*
X158890731Y-112356196D01*
X158920836Y-112333659D01*
X158974580Y-112310643D01*
X159032900Y-112314814D01*
X159082826Y-112345245D01*
X159263624Y-112526043D01*
X159276562Y-112542192D01*
X159327845Y-112590350D01*
X159330643Y-112593062D01*
X159350204Y-112612623D01*
X159353385Y-112615090D01*
X159362282Y-112622688D01*
X159394230Y-112652691D01*
X159394232Y-112652692D01*
X159394233Y-112652693D01*
X159411878Y-112662393D01*
X159428135Y-112673072D01*
X159444038Y-112685408D01*
X159484258Y-112702812D01*
X159494749Y-112707951D01*
X159533166Y-112729072D01*
X159552675Y-112734081D01*
X159571061Y-112740376D01*
X159589541Y-112748373D01*
X159632844Y-112755231D01*
X159644247Y-112757592D01*
X159686728Y-112768500D01*
X159706865Y-112768500D01*
X159726262Y-112770026D01*
X159746133Y-112773174D01*
X159789761Y-112769049D01*
X159801429Y-112768500D01*
X159919949Y-112768500D01*
X159978077Y-112782969D01*
X160022640Y-112822999D01*
X160043239Y-112879248D01*
X160043909Y-112885484D01*
X160066178Y-112945189D01*
X160094204Y-113020331D01*
X160180454Y-113135546D01*
X160295669Y-113221796D01*
X160430517Y-113272091D01*
X160490127Y-113278500D01*
X161525872Y-113278499D01*
X161585483Y-113272091D01*
X161720331Y-113221796D01*
X161723685Y-113219284D01*
X161771640Y-113197382D01*
X161824360Y-113197382D01*
X161872314Y-113219284D01*
X161875669Y-113221796D01*
X162010517Y-113272091D01*
X162070127Y-113278500D01*
X163105872Y-113278499D01*
X163165483Y-113272091D01*
X163300331Y-113221796D01*
X163415546Y-113135546D01*
X163501796Y-113020331D01*
X163518269Y-112976164D01*
X163544707Y-112933930D01*
X163585637Y-112905512D01*
X163634450Y-112895500D01*
X163882789Y-112895500D01*
X163948760Y-112914505D01*
X164008563Y-112952082D01*
X164169046Y-113008237D01*
X164338000Y-113027274D01*
X164506954Y-113008237D01*
X164667437Y-112952082D01*
X164727239Y-112914505D01*
X164793211Y-112895500D01*
X165190833Y-112895500D01*
X165246337Y-112908616D01*
X165290100Y-112945189D01*
X165314989Y-112978437D01*
X165328546Y-112996546D01*
X165443761Y-113082796D01*
X165578609Y-113133091D01*
X165638219Y-113139500D01*
X166753964Y-113139499D01*
X166813575Y-113133091D01*
X166948423Y-113082796D01*
X167063638Y-112996546D01*
X167149888Y-112881331D01*
X167151441Y-112877165D01*
X167177881Y-112834930D01*
X167218811Y-112806512D01*
X167267623Y-112796500D01*
X167701686Y-112796500D01*
X167759814Y-112810969D01*
X167804377Y-112850998D01*
X167824976Y-112907247D01*
X167831709Y-112969885D01*
X167841653Y-112996545D01*
X167882004Y-113104732D01*
X167968254Y-113219947D01*
X168083469Y-113306197D01*
X168218317Y-113356492D01*
X168277927Y-113362901D01*
X169669072Y-113362900D01*
X169728683Y-113356492D01*
X169863531Y-113306197D01*
X169958325Y-113235233D01*
X169993477Y-113216847D01*
X170032636Y-113210501D01*
X170056720Y-113210501D01*
X170104173Y-113219940D01*
X170144401Y-113246820D01*
X170693624Y-113796043D01*
X170706562Y-113812192D01*
X170757845Y-113860350D01*
X170760644Y-113863062D01*
X170780204Y-113882623D01*
X170783385Y-113885090D01*
X170792282Y-113892688D01*
X170824230Y-113922691D01*
X170824232Y-113922692D01*
X170824233Y-113922693D01*
X170841878Y-113932393D01*
X170858135Y-113943072D01*
X170874038Y-113955408D01*
X170914258Y-113972812D01*
X170924749Y-113977951D01*
X170963166Y-113999072D01*
X170982675Y-114004081D01*
X171001061Y-114010376D01*
X171019541Y-114018373D01*
X171062844Y-114025231D01*
X171074247Y-114027592D01*
X171116728Y-114038500D01*
X171136865Y-114038500D01*
X171156262Y-114040026D01*
X171176133Y-114043174D01*
X171219761Y-114039049D01*
X171231430Y-114038500D01*
X172027719Y-114038500D01*
X172075172Y-114047939D01*
X172115400Y-114074819D01*
X172373681Y-114333100D01*
X172400561Y-114373328D01*
X172410000Y-114420780D01*
X172410000Y-114525669D01*
X172416409Y-114585284D01*
X172434602Y-114634060D01*
X172466704Y-114720131D01*
X172552954Y-114835346D01*
X172668169Y-114921596D01*
X172803017Y-114971891D01*
X172862627Y-114978300D01*
X173644172Y-114978299D01*
X173703783Y-114971891D01*
X173768869Y-114947615D01*
X173812199Y-114939798D01*
X173855531Y-114947615D01*
X173920617Y-114971891D01*
X173980227Y-114978300D01*
X174761772Y-114978299D01*
X174821383Y-114971891D01*
X174956231Y-114921596D01*
X175071446Y-114835346D01*
X175071446Y-114835345D01*
X175084955Y-114825233D01*
X175120107Y-114806846D01*
X175159266Y-114800500D01*
X178987034Y-114800500D01*
X179007601Y-114802770D01*
X179010475Y-114802679D01*
X179010477Y-114802680D01*
X179077918Y-114800561D01*
X179081813Y-114800500D01*
X179109474Y-114800500D01*
X179109476Y-114800500D01*
X179113470Y-114799995D01*
X179125114Y-114799077D01*
X179168943Y-114797701D01*
X179188280Y-114792082D01*
X179207321Y-114788138D01*
X179227293Y-114785616D01*
X179268055Y-114769476D01*
X179279092Y-114765698D01*
X179321191Y-114753468D01*
X179338510Y-114743224D01*
X179355994Y-114734659D01*
X179374703Y-114727253D01*
X179410168Y-114701485D01*
X179419915Y-114695081D01*
X179457656Y-114672763D01*
X179471892Y-114658526D01*
X179486679Y-114645896D01*
X179502967Y-114634063D01*
X179530904Y-114600290D01*
X179538756Y-114591661D01*
X182193514Y-111936903D01*
X193683794Y-111936903D01*
X193693672Y-112244972D01*
X193742867Y-112549261D01*
X193830570Y-112844760D01*
X193955334Y-113126604D01*
X193955336Y-113126608D01*
X193955337Y-113126609D01*
X194115123Y-113390193D01*
X194307304Y-113631181D01*
X194528724Y-113845614D01*
X194775747Y-114029972D01*
X195044318Y-114181228D01*
X195330025Y-114296899D01*
X195628179Y-114375084D01*
X195933883Y-114414500D01*
X196164974Y-114414500D01*
X196164978Y-114414500D01*
X196214639Y-114411311D01*
X196395601Y-114399693D01*
X196698151Y-114340772D01*
X196990683Y-114243644D01*
X197268393Y-114109907D01*
X197526720Y-113941754D01*
X197532197Y-113937092D01*
X197622342Y-113860350D01*
X197761424Y-113741948D01*
X197954502Y-113529348D01*
X197968646Y-113513774D01*
X197968647Y-113513771D01*
X197968650Y-113513769D01*
X198144996Y-113260963D01*
X198287567Y-112987683D01*
X198294117Y-112969884D01*
X198394020Y-112698416D01*
X198443861Y-112480046D01*
X198462609Y-112397908D01*
X198492206Y-112091098D01*
X198482327Y-111783022D01*
X198433133Y-111478739D01*
X198345431Y-111183244D01*
X198341375Y-111174081D01*
X198220665Y-110901395D01*
X198210564Y-110884732D01*
X198060877Y-110637807D01*
X197868696Y-110396819D01*
X197647276Y-110182386D01*
X197620842Y-110162658D01*
X197400256Y-109998030D01*
X197400254Y-109998029D01*
X197400253Y-109998028D01*
X197131682Y-109846772D01*
X196845975Y-109731101D01*
X196611417Y-109669592D01*
X196547818Y-109652915D01*
X196280896Y-109618500D01*
X196242117Y-109613500D01*
X196011026Y-109613500D01*
X196011022Y-109613500D01*
X195780397Y-109628307D01*
X195477854Y-109687226D01*
X195371074Y-109722680D01*
X195185317Y-109784356D01*
X195185314Y-109784357D01*
X195185312Y-109784358D01*
X194907612Y-109918089D01*
X194649274Y-110086249D01*
X194414575Y-110286052D01*
X194207353Y-110514225D01*
X194031002Y-110767039D01*
X193888432Y-111040316D01*
X193781979Y-111329583D01*
X193713390Y-111630092D01*
X193683794Y-111936903D01*
X182193514Y-111936903D01*
X187583044Y-106547373D01*
X187599190Y-106534439D01*
X187601159Y-106532341D01*
X187601162Y-106532340D01*
X187647383Y-106483118D01*
X187650001Y-106480416D01*
X187669623Y-106460796D01*
X187672100Y-106457601D01*
X187679681Y-106448724D01*
X187709693Y-106416767D01*
X187719392Y-106399122D01*
X187730071Y-106382864D01*
X187742408Y-106366962D01*
X187759815Y-106326734D01*
X187764951Y-106316251D01*
X187786072Y-106277834D01*
X187791077Y-106258340D01*
X187797383Y-106239923D01*
X187805373Y-106221460D01*
X187805372Y-106221460D01*
X187805374Y-106221458D01*
X187812231Y-106178155D01*
X187814596Y-106166736D01*
X187825500Y-106124272D01*
X187825500Y-106104142D01*
X187827027Y-106084743D01*
X187827123Y-106084134D01*
X187830175Y-106064867D01*
X187826050Y-106021230D01*
X187825500Y-106009561D01*
X187825500Y-105283000D01*
X189613743Y-105283000D01*
X189632749Y-105585079D01*
X189689467Y-105882409D01*
X189777908Y-106154600D01*
X189783001Y-106170274D01*
X189911877Y-106444150D01*
X190074062Y-106699713D01*
X190157206Y-106800217D01*
X190266998Y-106932933D01*
X190487646Y-107140136D01*
X190732519Y-107318046D01*
X190971633Y-107449500D01*
X190997763Y-107463865D01*
X191279190Y-107575290D01*
X191572363Y-107650564D01*
X191796784Y-107678914D01*
X191872657Y-107688500D01*
X191872659Y-107688500D01*
X192175341Y-107688500D01*
X192175343Y-107688500D01*
X192242704Y-107679989D01*
X192475637Y-107650564D01*
X192768810Y-107575290D01*
X193050237Y-107463865D01*
X193315480Y-107318046D01*
X193345328Y-107296360D01*
X193560353Y-107140136D01*
X193613118Y-107090586D01*
X193781001Y-106932934D01*
X193973938Y-106699713D01*
X194136123Y-106444150D01*
X194264999Y-106170274D01*
X194358533Y-105882406D01*
X194415250Y-105585085D01*
X194434256Y-105283000D01*
X194415250Y-104980915D01*
X194358533Y-104683594D01*
X194347551Y-104649796D01*
X194289755Y-104471918D01*
X194264999Y-104395726D01*
X194136123Y-104121850D01*
X193973938Y-103866287D01*
X193781001Y-103633066D01*
X193735364Y-103590210D01*
X193560353Y-103425863D01*
X193315480Y-103247953D01*
X193050238Y-103102135D01*
X192859345Y-103026555D01*
X192768810Y-102990710D01*
X192768808Y-102990709D01*
X192768807Y-102990709D01*
X192475638Y-102915436D01*
X192175343Y-102877500D01*
X192175341Y-102877500D01*
X191872659Y-102877500D01*
X191872657Y-102877500D01*
X191572361Y-102915436D01*
X191279192Y-102990709D01*
X190997761Y-103102135D01*
X190732519Y-103247953D01*
X190487646Y-103425863D01*
X190266998Y-103633066D01*
X190074700Y-103865516D01*
X190074062Y-103866287D01*
X189957062Y-104050650D01*
X189911877Y-104121850D01*
X189782999Y-104395730D01*
X189689467Y-104683590D01*
X189632749Y-104980920D01*
X189613743Y-105283000D01*
X187825500Y-105283000D01*
X187825500Y-103714966D01*
X187827770Y-103694398D01*
X187825561Y-103624081D01*
X187825500Y-103620187D01*
X187825500Y-103592525D01*
X187825500Y-103592524D01*
X187824993Y-103588517D01*
X187824077Y-103576869D01*
X187822701Y-103533057D01*
X187817083Y-103513722D01*
X187813138Y-103494679D01*
X187810616Y-103474707D01*
X187794481Y-103433955D01*
X187790698Y-103422907D01*
X187778468Y-103380809D01*
X187768222Y-103363485D01*
X187759661Y-103346009D01*
X187752253Y-103327297D01*
X187726489Y-103291837D01*
X187720074Y-103282070D01*
X187697763Y-103244344D01*
X187683530Y-103230111D01*
X187670893Y-103215316D01*
X187659063Y-103199033D01*
X187659060Y-103199031D01*
X187659060Y-103199030D01*
X187625287Y-103171090D01*
X187616647Y-103163228D01*
X186811375Y-102357956D01*
X186798439Y-102341809D01*
X186747153Y-102293648D01*
X186744354Y-102290935D01*
X186724795Y-102271375D01*
X186721606Y-102268902D01*
X186712716Y-102261310D01*
X186669347Y-102220583D01*
X186672013Y-102217743D01*
X186648616Y-102195555D01*
X186630004Y-102135885D01*
X186642864Y-102074717D01*
X186643555Y-102073328D01*
X186643558Y-102073325D01*
X186737359Y-101884947D01*
X186737360Y-101884944D01*
X186794948Y-101682544D01*
X186801577Y-101611000D01*
X186814365Y-101473000D01*
X186798319Y-101299832D01*
X186794948Y-101263455D01*
X186737359Y-101061052D01*
X186643560Y-100872677D01*
X186516739Y-100704739D01*
X186361225Y-100562970D01*
X186182304Y-100452187D01*
X186079968Y-100412542D01*
X185986076Y-100376168D01*
X185779220Y-100337500D01*
X185568780Y-100337500D01*
X185361923Y-100376168D01*
X185361924Y-100376168D01*
X185165695Y-100452187D01*
X184986774Y-100562970D01*
X184831260Y-100704739D01*
X184704439Y-100872677D01*
X184610640Y-101061052D01*
X184553051Y-101263455D01*
X184533635Y-101473000D01*
X184553051Y-101682544D01*
X184610639Y-101884944D01*
X184636176Y-101936228D01*
X184649044Y-101997226D01*
X184630603Y-102056777D01*
X184585515Y-102099829D01*
X184525176Y-102115500D01*
X184144781Y-102115500D01*
X184089509Y-102102500D01*
X184045827Y-102066227D01*
X183976739Y-101974739D01*
X183821225Y-101832970D01*
X183642304Y-101722187D01*
X183465838Y-101653824D01*
X183446076Y-101646168D01*
X183239220Y-101607500D01*
X183028780Y-101607500D01*
X182821924Y-101646167D01*
X182821924Y-101646168D01*
X182625695Y-101722187D01*
X182446774Y-101832970D01*
X182291260Y-101974739D01*
X182222173Y-102066227D01*
X182178491Y-102102500D01*
X182123219Y-102115500D01*
X178898966Y-102115500D01*
X178878398Y-102113229D01*
X178808081Y-102115439D01*
X178804187Y-102115500D01*
X178776524Y-102115500D01*
X178772515Y-102116006D01*
X178760883Y-102116921D01*
X178717056Y-102118298D01*
X178697717Y-102123917D01*
X178678667Y-102127862D01*
X178658707Y-102130383D01*
X178617951Y-102146519D01*
X178606905Y-102150301D01*
X178564806Y-102162532D01*
X178547480Y-102172779D01*
X178530012Y-102181336D01*
X178511295Y-102188746D01*
X178475825Y-102214516D01*
X178466067Y-102220927D01*
X178428344Y-102243237D01*
X178428342Y-102243238D01*
X178428343Y-102243238D01*
X178414107Y-102257473D01*
X178399319Y-102270103D01*
X178383033Y-102281936D01*
X178355091Y-102315711D01*
X178347230Y-102324349D01*
X177703400Y-102968181D01*
X177663172Y-102995061D01*
X177615719Y-103004500D01*
X175210066Y-103004500D01*
X175170907Y-102998154D01*
X175135755Y-102979767D01*
X175113608Y-102963188D01*
X175007031Y-102883404D01*
X174872183Y-102833109D01*
X174812573Y-102826700D01*
X174812569Y-102826700D01*
X174031030Y-102826700D01*
X173971414Y-102833109D01*
X173906332Y-102857383D01*
X173863000Y-102865201D01*
X173819668Y-102857383D01*
X173754586Y-102833109D01*
X173729035Y-102830362D01*
X173694973Y-102826700D01*
X173694969Y-102826700D01*
X172913430Y-102826700D01*
X172853815Y-102833109D01*
X172718969Y-102883404D01*
X172603754Y-102969654D01*
X172517504Y-103084868D01*
X172467209Y-103219716D01*
X172460800Y-103279331D01*
X172460800Y-103460418D01*
X172451361Y-103507871D01*
X172424481Y-103548099D01*
X172242400Y-103730181D01*
X172202172Y-103757061D01*
X172154719Y-103766500D01*
X171659966Y-103766500D01*
X171639399Y-103764229D01*
X171569095Y-103766439D01*
X171565200Y-103766500D01*
X171537523Y-103766500D01*
X171533506Y-103767007D01*
X171521874Y-103767922D01*
X171478057Y-103769299D01*
X171458724Y-103774916D01*
X171439678Y-103778860D01*
X171419705Y-103781383D01*
X171378953Y-103797518D01*
X171367905Y-103801301D01*
X171325807Y-103813532D01*
X171308480Y-103823779D01*
X171291012Y-103832336D01*
X171272295Y-103839746D01*
X171236825Y-103865516D01*
X171227067Y-103871927D01*
X171189344Y-103894237D01*
X171189342Y-103894238D01*
X171189343Y-103894238D01*
X171175107Y-103908473D01*
X171160319Y-103921103D01*
X171144033Y-103932936D01*
X171116091Y-103966711D01*
X171108230Y-103975349D01*
X169855696Y-105227883D01*
X169816828Y-105254190D01*
X169770966Y-105264167D01*
X169724684Y-105256384D01*
X169601683Y-105210508D01*
X169542073Y-105204099D01*
X169542069Y-105204099D01*
X168150930Y-105204099D01*
X168091315Y-105210508D01*
X167956469Y-105260803D01*
X167841254Y-105347053D01*
X167755004Y-105462267D01*
X167704709Y-105597115D01*
X167698300Y-105656730D01*
X167698300Y-105809918D01*
X167688861Y-105857371D01*
X167661981Y-105897599D01*
X167316015Y-106243564D01*
X167254693Y-106277049D01*
X167185002Y-106272065D01*
X167129068Y-106230195D01*
X167110547Y-106205454D01*
X166995331Y-106119204D01*
X166860483Y-106068909D01*
X166860482Y-106068908D01*
X166800873Y-106062500D01*
X166800869Y-106062500D01*
X165685130Y-106062500D01*
X165625515Y-106068909D01*
X165490669Y-106119204D01*
X165375453Y-106205454D01*
X165337008Y-106256811D01*
X165293245Y-106293384D01*
X165237741Y-106306500D01*
X163634450Y-106306500D01*
X163585637Y-106296488D01*
X163544707Y-106268070D01*
X163518268Y-106225834D01*
X163513915Y-106214162D01*
X163501796Y-106181669D01*
X163415546Y-106066454D01*
X163300331Y-105980204D01*
X163296165Y-105978650D01*
X163253930Y-105952211D01*
X163225512Y-105911281D01*
X163215500Y-105862469D01*
X163215500Y-100202999D01*
X181993635Y-100202999D01*
X182013051Y-100412544D01*
X182070640Y-100614947D01*
X182164439Y-100803322D01*
X182291260Y-100971260D01*
X182446774Y-101113029D01*
X182446776Y-101113030D01*
X182446777Y-101113031D01*
X182625696Y-101223813D01*
X182821924Y-101299832D01*
X183028780Y-101338500D01*
X183239218Y-101338500D01*
X183239220Y-101338500D01*
X183446076Y-101299832D01*
X183642304Y-101223813D01*
X183821223Y-101113031D01*
X183976740Y-100971259D01*
X184103558Y-100803325D01*
X184103558Y-100803323D01*
X184103560Y-100803322D01*
X184197359Y-100614947D01*
X184254948Y-100412544D01*
X184258319Y-100376168D01*
X184274365Y-100203000D01*
X184258319Y-100029832D01*
X184254948Y-99993455D01*
X184197359Y-99791052D01*
X184103560Y-99602677D01*
X183976739Y-99434739D01*
X183821225Y-99292970D01*
X183642304Y-99182187D01*
X183546437Y-99145048D01*
X183446076Y-99106168D01*
X183239220Y-99067500D01*
X183028780Y-99067500D01*
X182821924Y-99106167D01*
X182821924Y-99106168D01*
X182625695Y-99182187D01*
X182446774Y-99292970D01*
X182291260Y-99434739D01*
X182164439Y-99602677D01*
X182070640Y-99791052D01*
X182013051Y-99993455D01*
X181993635Y-100202999D01*
X163215500Y-100202999D01*
X163215500Y-98040000D01*
X165626000Y-98040000D01*
X165626000Y-98347824D01*
X165632402Y-98407375D01*
X165682647Y-98542089D01*
X165768811Y-98657188D01*
X165883910Y-98743352D01*
X166018624Y-98793597D01*
X166078176Y-98800000D01*
X166346000Y-98800000D01*
X166846000Y-98800000D01*
X167113824Y-98800000D01*
X167173377Y-98793597D01*
X167308089Y-98743352D01*
X167311268Y-98740973D01*
X167359222Y-98719071D01*
X167411940Y-98719070D01*
X167459892Y-98740968D01*
X167463669Y-98743796D01*
X167598517Y-98794091D01*
X167658127Y-98800500D01*
X168693872Y-98800499D01*
X168753483Y-98794091D01*
X168888331Y-98743796D01*
X169003546Y-98657546D01*
X169089796Y-98542331D01*
X169106269Y-98498164D01*
X169132707Y-98455930D01*
X169173637Y-98427512D01*
X169222450Y-98417500D01*
X170983199Y-98417500D01*
X171041328Y-98431969D01*
X171085891Y-98471999D01*
X171106488Y-98528246D01*
X171107964Y-98541979D01*
X171108309Y-98545184D01*
X171133456Y-98612607D01*
X171158604Y-98680031D01*
X171244854Y-98795246D01*
X171360069Y-98881496D01*
X171494917Y-98931791D01*
X171554527Y-98938200D01*
X172615472Y-98938199D01*
X172675083Y-98931791D01*
X172809931Y-98881496D01*
X172925146Y-98795246D01*
X173011396Y-98680031D01*
X173061691Y-98545183D01*
X173068100Y-98485573D01*
X173068100Y-98485569D01*
X174149900Y-98485569D01*
X174156309Y-98545184D01*
X174181456Y-98612607D01*
X174206604Y-98680031D01*
X174292854Y-98795246D01*
X174408069Y-98881496D01*
X174542917Y-98931791D01*
X174602527Y-98938200D01*
X175663472Y-98938199D01*
X175711845Y-98932999D01*
X184533635Y-98932999D01*
X184553051Y-99142544D01*
X184610640Y-99344947D01*
X184704439Y-99533322D01*
X184831260Y-99701260D01*
X184986774Y-99843029D01*
X184986776Y-99843030D01*
X184986777Y-99843031D01*
X185165696Y-99953813D01*
X185361924Y-100029832D01*
X185568780Y-100068500D01*
X185779218Y-100068500D01*
X185779220Y-100068500D01*
X185986076Y-100029832D01*
X186182304Y-99953813D01*
X186361223Y-99843031D01*
X186516740Y-99701259D01*
X186643558Y-99533325D01*
X186643558Y-99533323D01*
X186643560Y-99533322D01*
X186737359Y-99344947D01*
X186794948Y-99142544D01*
X186798319Y-99106168D01*
X186814365Y-98933000D01*
X186799501Y-98772598D01*
X186794948Y-98723455D01*
X186737359Y-98521052D01*
X186643560Y-98332677D01*
X186516739Y-98164739D01*
X186361225Y-98022970D01*
X186182304Y-97912187D01*
X186079968Y-97872542D01*
X185986076Y-97836168D01*
X185779220Y-97797500D01*
X185568780Y-97797500D01*
X185361924Y-97836167D01*
X185361924Y-97836168D01*
X185165695Y-97912187D01*
X184986774Y-98022970D01*
X184831260Y-98164739D01*
X184704439Y-98332677D01*
X184610640Y-98521052D01*
X184553051Y-98723455D01*
X184533635Y-98932999D01*
X175711845Y-98932999D01*
X175723083Y-98931791D01*
X175857931Y-98881496D01*
X175973146Y-98795246D01*
X176059396Y-98680031D01*
X176101181Y-98567998D01*
X176137765Y-98516252D01*
X176195139Y-98489340D01*
X176258317Y-98494290D01*
X176361046Y-98530237D01*
X176530000Y-98549274D01*
X176698954Y-98530237D01*
X176859437Y-98474082D01*
X177003400Y-98383624D01*
X177123624Y-98263400D01*
X177214082Y-98119437D01*
X177270237Y-97958954D01*
X177289274Y-97790000D01*
X177274964Y-97663000D01*
X181993635Y-97663000D01*
X182013051Y-97872544D01*
X182070640Y-98074947D01*
X182164439Y-98263322D01*
X182291260Y-98431260D01*
X182446774Y-98573029D01*
X182446776Y-98573030D01*
X182446777Y-98573031D01*
X182625696Y-98683813D01*
X182821924Y-98759832D01*
X183028780Y-98798500D01*
X183239218Y-98798500D01*
X183239220Y-98798500D01*
X183446076Y-98759832D01*
X183642304Y-98683813D01*
X183821223Y-98573031D01*
X183976740Y-98431259D01*
X184103558Y-98263325D01*
X184103558Y-98263323D01*
X184103560Y-98263322D01*
X184197359Y-98074947D01*
X184254948Y-97872544D01*
X184258319Y-97836168D01*
X184274365Y-97663000D01*
X184258319Y-97489832D01*
X184254948Y-97453455D01*
X184197359Y-97251052D01*
X184103560Y-97062677D01*
X183976739Y-96894739D01*
X183821225Y-96752970D01*
X183642304Y-96642187D01*
X183539968Y-96602542D01*
X183446076Y-96566168D01*
X183239220Y-96527500D01*
X183028780Y-96527500D01*
X182821923Y-96566168D01*
X182821924Y-96566168D01*
X182625695Y-96642187D01*
X182446774Y-96752970D01*
X182291260Y-96894739D01*
X182164439Y-97062677D01*
X182070640Y-97251052D01*
X182013051Y-97453455D01*
X181993635Y-97663000D01*
X177274964Y-97663000D01*
X177270237Y-97621046D01*
X177214082Y-97460563D01*
X177123624Y-97316600D01*
X177123623Y-97316599D01*
X177123622Y-97316597D01*
X177003402Y-97196377D01*
X176859437Y-97105918D01*
X176698951Y-97049762D01*
X176530000Y-97030725D01*
X176361048Y-97049762D01*
X176258317Y-97085709D01*
X176195138Y-97090659D01*
X176137765Y-97063747D01*
X176101181Y-97012001D01*
X176059396Y-96899969D01*
X175973146Y-96784754D01*
X175857931Y-96698504D01*
X175723083Y-96648209D01*
X175663473Y-96641800D01*
X175663469Y-96641800D01*
X174602530Y-96641800D01*
X174542915Y-96648209D01*
X174408069Y-96698504D01*
X174292854Y-96784754D01*
X174206604Y-96899968D01*
X174156309Y-97034815D01*
X174156309Y-97034817D01*
X174150838Y-97085709D01*
X174149900Y-97094430D01*
X174149900Y-98485569D01*
X173068100Y-98485569D01*
X173068099Y-97094428D01*
X173061691Y-97034817D01*
X173011396Y-96899969D01*
X172925146Y-96784754D01*
X172809931Y-96698504D01*
X172675083Y-96648209D01*
X172615473Y-96641800D01*
X172615469Y-96641800D01*
X171554530Y-96641800D01*
X171494915Y-96648209D01*
X171360069Y-96698504D01*
X171244854Y-96784754D01*
X171158604Y-96899968D01*
X171108307Y-97034820D01*
X171106487Y-97051755D01*
X171085888Y-97108003D01*
X171041326Y-97148032D01*
X170983198Y-97162500D01*
X169222450Y-97162500D01*
X169173637Y-97152488D01*
X169132707Y-97124070D01*
X169106268Y-97081834D01*
X169099123Y-97062677D01*
X169089796Y-97037669D01*
X169003546Y-96922454D01*
X168888331Y-96836204D01*
X168753483Y-96785909D01*
X168693873Y-96779500D01*
X168693869Y-96779500D01*
X167658130Y-96779500D01*
X167598515Y-96785909D01*
X167463667Y-96836204D01*
X167459891Y-96839032D01*
X167411940Y-96860929D01*
X167359225Y-96860929D01*
X167311274Y-96839031D01*
X167308091Y-96836648D01*
X167173375Y-96786402D01*
X167113824Y-96780000D01*
X166846000Y-96780000D01*
X166846000Y-98800000D01*
X166346000Y-98800000D01*
X166346000Y-98040000D01*
X165626000Y-98040000D01*
X163215500Y-98040000D01*
X163215500Y-97540000D01*
X165626000Y-97540000D01*
X166346000Y-97540000D01*
X166346000Y-96780000D01*
X166078176Y-96780000D01*
X166018624Y-96786402D01*
X165883910Y-96836647D01*
X165768811Y-96922811D01*
X165682647Y-97037910D01*
X165632402Y-97172624D01*
X165626000Y-97232176D01*
X165626000Y-97540000D01*
X163215500Y-97540000D01*
X163215500Y-96392999D01*
X184533635Y-96392999D01*
X184553051Y-96602544D01*
X184610640Y-96804947D01*
X184704439Y-96993322D01*
X184831260Y-97161260D01*
X184986774Y-97303029D01*
X184986776Y-97303030D01*
X184986777Y-97303031D01*
X185165696Y-97413813D01*
X185361924Y-97489832D01*
X185568780Y-97528500D01*
X185779218Y-97528500D01*
X185779220Y-97528500D01*
X185986076Y-97489832D01*
X186182304Y-97413813D01*
X186361223Y-97303031D01*
X186516740Y-97161259D01*
X186643558Y-96993325D01*
X186643558Y-96993323D01*
X186643560Y-96993322D01*
X186737359Y-96804947D01*
X186794948Y-96602544D01*
X186798319Y-96566168D01*
X186814365Y-96393000D01*
X186798319Y-96219832D01*
X186794948Y-96183455D01*
X186737359Y-95981052D01*
X186643560Y-95792677D01*
X186516739Y-95624739D01*
X186361225Y-95482970D01*
X186182304Y-95372187D01*
X186079968Y-95332542D01*
X185986076Y-95296168D01*
X185779220Y-95257500D01*
X185568780Y-95257500D01*
X185361923Y-95296168D01*
X185361924Y-95296168D01*
X185165695Y-95372187D01*
X184986774Y-95482970D01*
X184831260Y-95624739D01*
X184704439Y-95792677D01*
X184610640Y-95981052D01*
X184553051Y-96183455D01*
X184533635Y-96392999D01*
X163215500Y-96392999D01*
X163215500Y-95123000D01*
X181993635Y-95123000D01*
X182013051Y-95332544D01*
X182070640Y-95534947D01*
X182164439Y-95723322D01*
X182291260Y-95891260D01*
X182446774Y-96033029D01*
X182446776Y-96033030D01*
X182446777Y-96033031D01*
X182625696Y-96143813D01*
X182821924Y-96219832D01*
X183028780Y-96258500D01*
X183239218Y-96258500D01*
X183239220Y-96258500D01*
X183446076Y-96219832D01*
X183642304Y-96143813D01*
X183821223Y-96033031D01*
X183976740Y-95891259D01*
X184103558Y-95723325D01*
X184103558Y-95723323D01*
X184103560Y-95723322D01*
X184197359Y-95534947D01*
X184254948Y-95332544D01*
X184260770Y-95269713D01*
X184274365Y-95123000D01*
X184254948Y-94913458D01*
X184254948Y-94913455D01*
X184197359Y-94711052D01*
X184103560Y-94522677D01*
X183976739Y-94354739D01*
X183821225Y-94212970D01*
X183642304Y-94102187D01*
X183642303Y-94102186D01*
X183446076Y-94026168D01*
X183239220Y-93987500D01*
X183028780Y-93987500D01*
X182821924Y-94026167D01*
X182821924Y-94026168D01*
X182625695Y-94102187D01*
X182446774Y-94212970D01*
X182291260Y-94354739D01*
X182164439Y-94522677D01*
X182070640Y-94711052D01*
X182013051Y-94913455D01*
X181993635Y-95123000D01*
X163215500Y-95123000D01*
X163215500Y-93852999D01*
X189613743Y-93852999D01*
X189632749Y-94155079D01*
X189689467Y-94452409D01*
X189782999Y-94740269D01*
X189783001Y-94740274D01*
X189911877Y-95014150D01*
X190074062Y-95269713D01*
X190158836Y-95372187D01*
X190266998Y-95502933D01*
X190487646Y-95710136D01*
X190732519Y-95888046D01*
X190996242Y-96033029D01*
X190997763Y-96033865D01*
X191279190Y-96145290D01*
X191572363Y-96220564D01*
X191796785Y-96248914D01*
X191872657Y-96258500D01*
X191872659Y-96258500D01*
X192175341Y-96258500D01*
X192175343Y-96258500D01*
X192242704Y-96249989D01*
X192475637Y-96220564D01*
X192768810Y-96145290D01*
X193050237Y-96033865D01*
X193315480Y-95888046D01*
X193417484Y-95813936D01*
X193560353Y-95710136D01*
X193606693Y-95666620D01*
X193781001Y-95502934D01*
X193973938Y-95269713D01*
X194136123Y-95014150D01*
X194264999Y-94740274D01*
X194358533Y-94452406D01*
X194415250Y-94155085D01*
X194434256Y-93853000D01*
X194415250Y-93550915D01*
X194358533Y-93253594D01*
X194264999Y-92965726D01*
X194136123Y-92691850D01*
X193973938Y-92436287D01*
X193781001Y-92203066D01*
X193560353Y-91995863D01*
X193315480Y-91817953D01*
X193050238Y-91672135D01*
X192768807Y-91560709D01*
X192475638Y-91485436D01*
X192175343Y-91447500D01*
X192175341Y-91447500D01*
X191872659Y-91447500D01*
X191872657Y-91447500D01*
X191572361Y-91485436D01*
X191279192Y-91560709D01*
X190997761Y-91672135D01*
X190732519Y-91817953D01*
X190487646Y-91995863D01*
X190266998Y-92203066D01*
X190074065Y-92436283D01*
X189911877Y-92691850D01*
X189782999Y-92965730D01*
X189689467Y-93253590D01*
X189632749Y-93550920D01*
X189613743Y-93852999D01*
X163215500Y-93852999D01*
X163215500Y-90857499D01*
X163232113Y-90795499D01*
X163277500Y-90750112D01*
X163339500Y-90733499D01*
X163940870Y-90733499D01*
X163940872Y-90733499D01*
X164000483Y-90727091D01*
X164135331Y-90676796D01*
X164250546Y-90590546D01*
X164336796Y-90475331D01*
X164387091Y-90340483D01*
X164393500Y-90280873D01*
X164393499Y-89408000D01*
X170373436Y-89408000D01*
X170393650Y-89639047D01*
X170393651Y-89639050D01*
X170453680Y-89863079D01*
X170551699Y-90073282D01*
X170684730Y-90263269D01*
X170848731Y-90427270D01*
X171038718Y-90560301D01*
X171248921Y-90658320D01*
X171472950Y-90718349D01*
X171572873Y-90727091D01*
X171703999Y-90738563D01*
X171703999Y-90738562D01*
X171704000Y-90738563D01*
X171935050Y-90718349D01*
X172159079Y-90658320D01*
X172369282Y-90560301D01*
X172559269Y-90427270D01*
X172705670Y-90280869D01*
X175458500Y-90280869D01*
X175464909Y-90340483D01*
X175515204Y-90475331D01*
X175601454Y-90590546D01*
X175716669Y-90676796D01*
X175851517Y-90727091D01*
X175911127Y-90733500D01*
X177656872Y-90733499D01*
X177716483Y-90727091D01*
X177851331Y-90676796D01*
X177966546Y-90590546D01*
X178052796Y-90475331D01*
X178103091Y-90340483D01*
X178109500Y-90280873D01*
X178109499Y-88535128D01*
X178103091Y-88475517D01*
X178052796Y-88340669D01*
X177966546Y-88225454D01*
X177851331Y-88139204D01*
X177716483Y-88088909D01*
X177656873Y-88082500D01*
X177656869Y-88082500D01*
X175911130Y-88082500D01*
X175851515Y-88088909D01*
X175716669Y-88139204D01*
X175601454Y-88225454D01*
X175515204Y-88340668D01*
X175464909Y-88475516D01*
X175458500Y-88535130D01*
X175458500Y-90280869D01*
X172705670Y-90280869D01*
X172723270Y-90263269D01*
X172856301Y-90073282D01*
X172954320Y-89863079D01*
X173014349Y-89639050D01*
X173034563Y-89408000D01*
X173014349Y-89176950D01*
X172954320Y-88952921D01*
X172856301Y-88742719D01*
X172723270Y-88552731D01*
X172559269Y-88388730D01*
X172369282Y-88255699D01*
X172272365Y-88210506D01*
X172159080Y-88157680D01*
X171935047Y-88097650D01*
X171704000Y-88077436D01*
X171472952Y-88097650D01*
X171248919Y-88157680D01*
X171038721Y-88255698D01*
X171038719Y-88255699D01*
X170848731Y-88388730D01*
X170848727Y-88388733D01*
X170684733Y-88552727D01*
X170684730Y-88552730D01*
X170684730Y-88552731D01*
X170554177Y-88739181D01*
X170551698Y-88742721D01*
X170453680Y-88952919D01*
X170393650Y-89176952D01*
X170373436Y-89408000D01*
X164393499Y-89408000D01*
X164393499Y-88535128D01*
X164387091Y-88475517D01*
X164336796Y-88340669D01*
X164250546Y-88225454D01*
X164135331Y-88139204D01*
X164000483Y-88088909D01*
X163940873Y-88082500D01*
X163940869Y-88082500D01*
X162195130Y-88082500D01*
X162135515Y-88088909D01*
X162000669Y-88139204D01*
X161885454Y-88225454D01*
X161799204Y-88340668D01*
X161748909Y-88475516D01*
X161742500Y-88535130D01*
X161742500Y-90280869D01*
X161748909Y-90340483D01*
X161799204Y-90475331D01*
X161862813Y-90560301D01*
X161885453Y-90590545D01*
X161910811Y-90609528D01*
X161947384Y-90653291D01*
X161960500Y-90708795D01*
X161960500Y-105862469D01*
X161950488Y-105911281D01*
X161922070Y-105952211D01*
X161879835Y-105978650D01*
X161875668Y-105980203D01*
X161872309Y-105982719D01*
X161824358Y-106004617D01*
X161771642Y-106004617D01*
X161723691Y-105982719D01*
X161720333Y-105980205D01*
X161720331Y-105980204D01*
X161585483Y-105929909D01*
X161525873Y-105923500D01*
X161525869Y-105923500D01*
X160490130Y-105923500D01*
X160430515Y-105929909D01*
X160295669Y-105980204D01*
X160180454Y-106066454D01*
X160094204Y-106181668D01*
X160058336Y-106277834D01*
X160043909Y-106316517D01*
X160038486Y-106366962D01*
X160037500Y-106376131D01*
X160037500Y-106866718D01*
X160028061Y-106914171D01*
X160001181Y-106954399D01*
X159796400Y-107159181D01*
X159756172Y-107186061D01*
X159708719Y-107195500D01*
X159059836Y-107195500D01*
X159020677Y-107189154D01*
X158985525Y-107170767D01*
X158973756Y-107161957D01*
X158890731Y-107099804D01*
X158755883Y-107049509D01*
X158696273Y-107043100D01*
X158696269Y-107043100D01*
X157140030Y-107043100D01*
X157080415Y-107049509D01*
X156945569Y-107099804D01*
X156830354Y-107186054D01*
X156744104Y-107301268D01*
X156693809Y-107436116D01*
X156687400Y-107495730D01*
X156687400Y-108150269D01*
X156693809Y-108209884D01*
X156744103Y-108344729D01*
X156744104Y-108344731D01*
X156773268Y-108383690D01*
X156795167Y-108431640D01*
X156795167Y-108484356D01*
X156773269Y-108532308D01*
X156744105Y-108571266D01*
X156693809Y-108706116D01*
X156692206Y-108721019D01*
X156687900Y-108761082D01*
X156687400Y-108765730D01*
X156687400Y-109420269D01*
X156693809Y-109479884D01*
X156743645Y-109613500D01*
X156744104Y-109614731D01*
X156773268Y-109653690D01*
X156795167Y-109701640D01*
X156795167Y-109754356D01*
X156773269Y-109802308D01*
X156744105Y-109841266D01*
X156699894Y-109959803D01*
X156693809Y-109976117D01*
X156687934Y-110030766D01*
X156687400Y-110035730D01*
X156687400Y-110690269D01*
X156693809Y-110749884D01*
X156744104Y-110884732D01*
X156773268Y-110923690D01*
X156795167Y-110971642D01*
X156795167Y-111024358D01*
X156773268Y-111072310D01*
X156744105Y-111111266D01*
X156693809Y-111246116D01*
X156693431Y-111249631D01*
X156688384Y-111296580D01*
X156687400Y-111305730D01*
X156687400Y-111960269D01*
X153700095Y-111960269D01*
X153700100Y-111960224D01*
X153700100Y-111883000D01*
X152719850Y-111883000D01*
X152219850Y-111883000D01*
X151239600Y-111883000D01*
X144891533Y-111883000D01*
X144888327Y-111783022D01*
X144839133Y-111478739D01*
X144751431Y-111183244D01*
X144747375Y-111174081D01*
X144626665Y-110901395D01*
X144616564Y-110884732D01*
X144466877Y-110637807D01*
X144274696Y-110396819D01*
X144053276Y-110182386D01*
X144026842Y-110162658D01*
X143806256Y-109998030D01*
X143806254Y-109998029D01*
X143806253Y-109998028D01*
X143537682Y-109846772D01*
X143251975Y-109731101D01*
X143017417Y-109669592D01*
X142953818Y-109652915D01*
X142686896Y-109618500D01*
X142648117Y-109613500D01*
X142417026Y-109613500D01*
X142417022Y-109613500D01*
X142186397Y-109628307D01*
X141883854Y-109687226D01*
X141777074Y-109722680D01*
X141591317Y-109784356D01*
X141591314Y-109784357D01*
X141591312Y-109784358D01*
X141313612Y-109918089D01*
X141055274Y-110086249D01*
X140820575Y-110286052D01*
X140613353Y-110514225D01*
X140437002Y-110767039D01*
X140294432Y-111040316D01*
X140187979Y-111329583D01*
X140119390Y-111630092D01*
X140089794Y-111936903D01*
X138176500Y-111936903D01*
X138176500Y-105406000D01*
X149484000Y-105406000D01*
X149484000Y-105703824D01*
X149490402Y-105763375D01*
X149540647Y-105898089D01*
X149626811Y-106013188D01*
X149741910Y-106099352D01*
X149876624Y-106149597D01*
X149936176Y-106156000D01*
X150284000Y-106156000D01*
X150284000Y-105406000D01*
X149484000Y-105406000D01*
X138176500Y-105406000D01*
X138176500Y-104906000D01*
X149484000Y-104906000D01*
X150284000Y-104906000D01*
X150284000Y-104156000D01*
X149936176Y-104156000D01*
X149876624Y-104162402D01*
X149741910Y-104212647D01*
X149626811Y-104298811D01*
X149540647Y-104413910D01*
X149490402Y-104548624D01*
X149484000Y-104608176D01*
X149484000Y-104906000D01*
X138176500Y-104906000D01*
X138176500Y-103156000D01*
X139752000Y-103156000D01*
X140127500Y-103156000D01*
X140189500Y-103172613D01*
X140234887Y-103218000D01*
X140251500Y-103280000D01*
X140251500Y-104253869D01*
X140257909Y-104313484D01*
X140267238Y-104338496D01*
X140308204Y-104448331D01*
X140394454Y-104563546D01*
X140509669Y-104649796D01*
X140644517Y-104700091D01*
X140704127Y-104706500D01*
X142599872Y-104706499D01*
X142659483Y-104700091D01*
X142794331Y-104649796D01*
X142909546Y-104563546D01*
X142995796Y-104448331D01*
X143046091Y-104313483D01*
X143052500Y-104253873D01*
X143052499Y-103279999D01*
X143069112Y-103218000D01*
X143114499Y-103172613D01*
X143176499Y-103156000D01*
X145402000Y-103156000D01*
X145402000Y-102611000D01*
X145393215Y-102602215D01*
X145364000Y-102594387D01*
X145325613Y-102556000D01*
X145802000Y-102556000D01*
X145802000Y-103106000D01*
X146349824Y-103106000D01*
X146409375Y-103099597D01*
X146544089Y-103049352D01*
X146659188Y-102963188D01*
X146745352Y-102848089D01*
X146795597Y-102713375D01*
X146802000Y-102653824D01*
X146802000Y-102556000D01*
X145802000Y-102556000D01*
X145325613Y-102556000D01*
X145318613Y-102549000D01*
X145302000Y-102487000D01*
X145302000Y-102125000D01*
X145318613Y-102063000D01*
X145364000Y-102017613D01*
X145393215Y-102009784D01*
X145402000Y-102001000D01*
X145402000Y-101611000D01*
X145393215Y-101602215D01*
X145364000Y-101594387D01*
X145325613Y-101556000D01*
X145802000Y-101556000D01*
X145802000Y-102056000D01*
X146802000Y-102056000D01*
X146802000Y-101958176D01*
X146795597Y-101898621D01*
X146777214Y-101849335D01*
X146769395Y-101806000D01*
X146777214Y-101762665D01*
X146795597Y-101713378D01*
X146802000Y-101653824D01*
X146802000Y-101556000D01*
X145802000Y-101556000D01*
X145325613Y-101556000D01*
X145318613Y-101549000D01*
X145302000Y-101487000D01*
X145302000Y-101125000D01*
X145318613Y-101063000D01*
X145364000Y-101017613D01*
X145393215Y-101009784D01*
X145402000Y-101001000D01*
X145402000Y-100611000D01*
X145393215Y-100602215D01*
X145364000Y-100594387D01*
X145325613Y-100556000D01*
X145802000Y-100556000D01*
X145802000Y-101056000D01*
X146802000Y-101056000D01*
X146802000Y-100958176D01*
X146795597Y-100898621D01*
X146777214Y-100849335D01*
X146769395Y-100806000D01*
X146777214Y-100762665D01*
X146795597Y-100713378D01*
X146802000Y-100653824D01*
X146802000Y-100556000D01*
X145802000Y-100556000D01*
X145325613Y-100556000D01*
X145318613Y-100549000D01*
X145302000Y-100487000D01*
X145302000Y-100230500D01*
X145318613Y-100168500D01*
X145364000Y-100123113D01*
X145426000Y-100106500D01*
X146349864Y-100106499D01*
X146349872Y-100106499D01*
X146409483Y-100100091D01*
X146506736Y-100063817D01*
X146550069Y-100056000D01*
X146802000Y-100056000D01*
X146803825Y-100054174D01*
X146818665Y-99998885D01*
X146864181Y-99953484D01*
X146926310Y-99936975D01*
X148260267Y-99940347D01*
X148325926Y-99959353D01*
X148353541Y-99976704D01*
X148387563Y-99998082D01*
X148548046Y-100054237D01*
X148717000Y-100073274D01*
X148885954Y-100054237D01*
X149046437Y-99998082D01*
X149190400Y-99907624D01*
X149310624Y-99787400D01*
X149401082Y-99643437D01*
X149457237Y-99482954D01*
X149476274Y-99314000D01*
X149457237Y-99145046D01*
X149401082Y-98984563D01*
X149330336Y-98871971D01*
X149311330Y-98805999D01*
X149330335Y-98740029D01*
X149401082Y-98627437D01*
X149457237Y-98466954D01*
X149476274Y-98298000D01*
X149472376Y-98263402D01*
X149462346Y-98174384D01*
X149473846Y-98106699D01*
X149519594Y-98055506D01*
X149585566Y-98036500D01*
X151199719Y-98036500D01*
X151247172Y-98045939D01*
X151287400Y-98072819D01*
X153768181Y-100553600D01*
X153795061Y-100593828D01*
X153804500Y-100641281D01*
X153804500Y-104364468D01*
X153787303Y-104427469D01*
X153740482Y-104472995D01*
X153677023Y-104488419D01*
X153632221Y-104474828D01*
X153631625Y-104476533D01*
X153618438Y-104471918D01*
X153618437Y-104471918D01*
X153457954Y-104415763D01*
X153457953Y-104415762D01*
X153457951Y-104415762D01*
X153275117Y-104395161D01*
X153275243Y-104394037D01*
X153228358Y-104387051D01*
X153178292Y-104347540D01*
X153141547Y-104298455D01*
X153136576Y-104294734D01*
X153026331Y-104212204D01*
X152891483Y-104161909D01*
X152831873Y-104155500D01*
X152831869Y-104155500D01*
X151636130Y-104155500D01*
X151576515Y-104161909D01*
X151511247Y-104186253D01*
X151441669Y-104212204D01*
X151441668Y-104212204D01*
X151426618Y-104217818D01*
X151383285Y-104225636D01*
X151339951Y-104217818D01*
X151191375Y-104162402D01*
X151131824Y-104156000D01*
X150784000Y-104156000D01*
X150784000Y-106156000D01*
X151131824Y-106156000D01*
X151191375Y-106149597D01*
X151339951Y-106094182D01*
X151383284Y-106086364D01*
X151426617Y-106094182D01*
X151441668Y-106099795D01*
X151441669Y-106099796D01*
X151496391Y-106120206D01*
X151548137Y-106156788D01*
X151575050Y-106214162D01*
X151570100Y-106277341D01*
X151532762Y-106384048D01*
X151513725Y-106552999D01*
X151532762Y-106721951D01*
X151532762Y-106721953D01*
X151532763Y-106721954D01*
X151586926Y-106876745D01*
X151593533Y-106895625D01*
X151592091Y-106896129D01*
X151606500Y-106946142D01*
X151606500Y-106972968D01*
X151596488Y-107021781D01*
X151568069Y-107062712D01*
X151525833Y-107089150D01*
X151497269Y-107099803D01*
X151382054Y-107186053D01*
X151295804Y-107301268D01*
X151245509Y-107436116D01*
X151239100Y-107495730D01*
X151239100Y-108150269D01*
X151245509Y-108209884D01*
X151295803Y-108344729D01*
X151295804Y-108344731D01*
X151324968Y-108383690D01*
X151346867Y-108431640D01*
X151346867Y-108484356D01*
X151324969Y-108532308D01*
X151295805Y-108571266D01*
X151245509Y-108706116D01*
X151243906Y-108721019D01*
X151239600Y-108761082D01*
X151239100Y-108765730D01*
X151239100Y-109420269D01*
X151245509Y-109479884D01*
X151295345Y-109613500D01*
X151295804Y-109614731D01*
X151324968Y-109653690D01*
X151346867Y-109701640D01*
X151346867Y-109754356D01*
X151324969Y-109802308D01*
X151295805Y-109841266D01*
X151251594Y-109959803D01*
X151245509Y-109976117D01*
X151239634Y-110030766D01*
X151239100Y-110035730D01*
X151239100Y-110690269D01*
X151245509Y-110749884D01*
X151270656Y-110817307D01*
X151295804Y-110884731D01*
X151325280Y-110924107D01*
X151347179Y-110972057D01*
X151347179Y-111024773D01*
X151325281Y-111072725D01*
X151296248Y-111111508D01*
X151246002Y-111246224D01*
X151239600Y-111305776D01*
X151239600Y-111383000D01*
X153700100Y-111383000D01*
X153700100Y-111305776D01*
X153693697Y-111246224D01*
X153643451Y-111111508D01*
X153614419Y-111072726D01*
X153592520Y-111024773D01*
X153592520Y-110972056D01*
X153614419Y-110924106D01*
X153643896Y-110884731D01*
X153694191Y-110749883D01*
X153700600Y-110690273D01*
X153700599Y-110521879D01*
X153710038Y-110474428D01*
X153736915Y-110434202D01*
X155579044Y-108592073D01*
X155595190Y-108579139D01*
X155597159Y-108577041D01*
X155597162Y-108577040D01*
X155643383Y-108527818D01*
X155646001Y-108525116D01*
X155665623Y-108505496D01*
X155668100Y-108502301D01*
X155675681Y-108493424D01*
X155705693Y-108461467D01*
X155715392Y-108443822D01*
X155726071Y-108427564D01*
X155738408Y-108411662D01*
X155755815Y-108371434D01*
X155760951Y-108360951D01*
X155782072Y-108322534D01*
X155787077Y-108303040D01*
X155793383Y-108284623D01*
X155801373Y-108266160D01*
X155801372Y-108266160D01*
X155801374Y-108266158D01*
X155808231Y-108222855D01*
X155810596Y-108211436D01*
X155821500Y-108168972D01*
X155821500Y-108148841D01*
X155823027Y-108129442D01*
X155826175Y-108109567D01*
X155822050Y-108065930D01*
X155821500Y-108054261D01*
X155821500Y-100158966D01*
X155823770Y-100138398D01*
X155821561Y-100068082D01*
X155821500Y-100064188D01*
X155821500Y-100036525D01*
X155820994Y-100032521D01*
X155820077Y-100020869D01*
X155818701Y-99977058D01*
X155813082Y-99957718D01*
X155809139Y-99938680D01*
X155806616Y-99918707D01*
X155790483Y-99877960D01*
X155786699Y-99866907D01*
X155774468Y-99824809D01*
X155764220Y-99807480D01*
X155755659Y-99790004D01*
X155754628Y-99787400D01*
X155748253Y-99771297D01*
X155722490Y-99735837D01*
X155716077Y-99726074D01*
X155701402Y-99701260D01*
X155693764Y-99688344D01*
X155679526Y-99674106D01*
X155666887Y-99659308D01*
X155655061Y-99643030D01*
X155621294Y-99615096D01*
X155612653Y-99607233D01*
X151886375Y-95880956D01*
X151873439Y-95864809D01*
X151822154Y-95816649D01*
X151819355Y-95813936D01*
X151799795Y-95794375D01*
X151796606Y-95791902D01*
X151787716Y-95784310D01*
X151755767Y-95754307D01*
X151753465Y-95753041D01*
X151738120Y-95744605D01*
X151721858Y-95733922D01*
X151705963Y-95721592D01*
X151665736Y-95704184D01*
X151655248Y-95699046D01*
X151616831Y-95677926D01*
X151597337Y-95672921D01*
X151578933Y-95666620D01*
X151560458Y-95658625D01*
X151517171Y-95651769D01*
X151505736Y-95649401D01*
X151463274Y-95638500D01*
X151463272Y-95638500D01*
X151443142Y-95638500D01*
X151423743Y-95636973D01*
X151403868Y-95633825D01*
X151403867Y-95633825D01*
X151383261Y-95635772D01*
X151360230Y-95637950D01*
X151348561Y-95638500D01*
X148499281Y-95638500D01*
X148442986Y-95624985D01*
X148398963Y-95587385D01*
X148376808Y-95533898D01*
X148381350Y-95476182D01*
X148411600Y-95426819D01*
X148542251Y-95296168D01*
X148959449Y-94878968D01*
X149006174Y-94849609D01*
X149012952Y-94847237D01*
X149012954Y-94847237D01*
X149173437Y-94791082D01*
X149317400Y-94700624D01*
X149437624Y-94580400D01*
X149528082Y-94436437D01*
X149584237Y-94275954D01*
X149603274Y-94107000D01*
X149584237Y-93938046D01*
X149528082Y-93777563D01*
X149437624Y-93633600D01*
X149437623Y-93633599D01*
X149437622Y-93633597D01*
X149317402Y-93513377D01*
X149173437Y-93422918D01*
X149012951Y-93366762D01*
X148844000Y-93347725D01*
X148675048Y-93366762D01*
X148514562Y-93422918D01*
X148370597Y-93513377D01*
X148250377Y-93633597D01*
X148159916Y-93777565D01*
X148101390Y-93944823D01*
X148072030Y-93991549D01*
X147421400Y-94642181D01*
X147381172Y-94669061D01*
X147333719Y-94678500D01*
X146740953Y-94678500D01*
X146701793Y-94672154D01*
X146666642Y-94653767D01*
X146659547Y-94648456D01*
X146659546Y-94648454D01*
X146544331Y-94562204D01*
X146409483Y-94511909D01*
X146349873Y-94505500D01*
X146349869Y-94505500D01*
X145502862Y-94505500D01*
X145455409Y-94496061D01*
X145415181Y-94469181D01*
X145402000Y-94456000D01*
X143176500Y-94456000D01*
X143114500Y-94439387D01*
X143069113Y-94394000D01*
X143052500Y-94332000D01*
X143052499Y-93358130D01*
X143051381Y-93347726D01*
X143046091Y-93298517D01*
X142995796Y-93163669D01*
X142909546Y-93048454D01*
X142794331Y-92962204D01*
X142659483Y-92911909D01*
X142599873Y-92905500D01*
X142599869Y-92905500D01*
X140704130Y-92905500D01*
X140644515Y-92911909D01*
X140509669Y-92962204D01*
X140394454Y-93048454D01*
X140308204Y-93163668D01*
X140257909Y-93298515D01*
X140257909Y-93298517D01*
X140251500Y-93358127D01*
X140251500Y-93853000D01*
X140251501Y-94332000D01*
X140234888Y-94394000D01*
X140189501Y-94439387D01*
X140127501Y-94456000D01*
X139752000Y-94456000D01*
X139752000Y-103156000D01*
X138176500Y-103156000D01*
X138176500Y-87044903D01*
X140089794Y-87044903D01*
X140099672Y-87352972D01*
X140148867Y-87657261D01*
X140236570Y-87952760D01*
X140361334Y-88234604D01*
X140361336Y-88234608D01*
X140361337Y-88234609D01*
X140521123Y-88498193D01*
X140713304Y-88739181D01*
X140934724Y-88953614D01*
X141181747Y-89137972D01*
X141450318Y-89289228D01*
X141736025Y-89404899D01*
X142034179Y-89483084D01*
X142339883Y-89522500D01*
X142570974Y-89522500D01*
X142570978Y-89522500D01*
X142620639Y-89519311D01*
X142801601Y-89507693D01*
X143104151Y-89448772D01*
X143226949Y-89408000D01*
X156657436Y-89408000D01*
X156677650Y-89639047D01*
X156677651Y-89639050D01*
X156737680Y-89863079D01*
X156835699Y-90073282D01*
X156968730Y-90263269D01*
X157132731Y-90427270D01*
X157322718Y-90560301D01*
X157532921Y-90658320D01*
X157756950Y-90718349D01*
X157856873Y-90727091D01*
X157987999Y-90738563D01*
X157987999Y-90738562D01*
X157988000Y-90738563D01*
X158219050Y-90718349D01*
X158443079Y-90658320D01*
X158653282Y-90560301D01*
X158843269Y-90427270D01*
X159007270Y-90263269D01*
X159140301Y-90073282D01*
X159238320Y-89863079D01*
X159298349Y-89639050D01*
X159318563Y-89408000D01*
X159298349Y-89176950D01*
X159238320Y-88952921D01*
X159140301Y-88742719D01*
X159007270Y-88552731D01*
X158843269Y-88388730D01*
X158653282Y-88255699D01*
X158556365Y-88210506D01*
X158443080Y-88157680D01*
X158219047Y-88097650D01*
X157988000Y-88077436D01*
X157756952Y-88097650D01*
X157532919Y-88157680D01*
X157322721Y-88255698D01*
X157322719Y-88255699D01*
X157132731Y-88388730D01*
X157132727Y-88388733D01*
X156968733Y-88552727D01*
X156968730Y-88552730D01*
X156968730Y-88552731D01*
X156838177Y-88739181D01*
X156835698Y-88742721D01*
X156737680Y-88952919D01*
X156677650Y-89176952D01*
X156657436Y-89408000D01*
X143226949Y-89408000D01*
X143396683Y-89351644D01*
X143674393Y-89217907D01*
X143932720Y-89049754D01*
X144167424Y-88849948D01*
X144297298Y-88706941D01*
X144374646Y-88621774D01*
X144374647Y-88621771D01*
X144374650Y-88621769D01*
X144550996Y-88368963D01*
X144693567Y-88095683D01*
X144800020Y-87806415D01*
X144868609Y-87505908D01*
X144898206Y-87199098D01*
X144893261Y-87044903D01*
X193937794Y-87044903D01*
X193947672Y-87352972D01*
X193996867Y-87657261D01*
X194084570Y-87952760D01*
X194209334Y-88234604D01*
X194209336Y-88234608D01*
X194209337Y-88234609D01*
X194369123Y-88498193D01*
X194561304Y-88739181D01*
X194782724Y-88953614D01*
X195029747Y-89137972D01*
X195298318Y-89289228D01*
X195584025Y-89404899D01*
X195882179Y-89483084D01*
X196187883Y-89522500D01*
X196418974Y-89522500D01*
X196418978Y-89522500D01*
X196468639Y-89519311D01*
X196649601Y-89507693D01*
X196952151Y-89448772D01*
X197244683Y-89351644D01*
X197522393Y-89217907D01*
X197780720Y-89049754D01*
X198015424Y-88849948D01*
X198145298Y-88706941D01*
X198222646Y-88621774D01*
X198222647Y-88621771D01*
X198222650Y-88621769D01*
X198398996Y-88368963D01*
X198541567Y-88095683D01*
X198648020Y-87806415D01*
X198716609Y-87505908D01*
X198746206Y-87199098D01*
X198736327Y-86891022D01*
X198687133Y-86586739D01*
X198599431Y-86291244D01*
X198599429Y-86291239D01*
X198474665Y-86009395D01*
X198393218Y-85875039D01*
X198314877Y-85745807D01*
X198122696Y-85504819D01*
X197901276Y-85290386D01*
X197654253Y-85106028D01*
X197385682Y-84954772D01*
X197099975Y-84839101D01*
X196865416Y-84777592D01*
X196801818Y-84760915D01*
X196549227Y-84728347D01*
X196496117Y-84721500D01*
X196265026Y-84721500D01*
X196265022Y-84721500D01*
X196034397Y-84736307D01*
X195731854Y-84795226D01*
X195599711Y-84839101D01*
X195439317Y-84892356D01*
X195439314Y-84892357D01*
X195439312Y-84892358D01*
X195161612Y-85026089D01*
X194903274Y-85194249D01*
X194668575Y-85394052D01*
X194461353Y-85622225D01*
X194285002Y-85875039D01*
X194142432Y-86148316D01*
X194035979Y-86437583D01*
X193967390Y-86738092D01*
X193937794Y-87044903D01*
X144893261Y-87044903D01*
X144888327Y-86891022D01*
X144839133Y-86586739D01*
X144751431Y-86291244D01*
X144751429Y-86291239D01*
X144626665Y-86009395D01*
X144545218Y-85875039D01*
X144466877Y-85745807D01*
X144274696Y-85504819D01*
X144053276Y-85290386D01*
X143806253Y-85106028D01*
X143537682Y-84954772D01*
X143251975Y-84839101D01*
X143017416Y-84777592D01*
X142953818Y-84760915D01*
X142701227Y-84728347D01*
X142648117Y-84721500D01*
X142417026Y-84721500D01*
X142417022Y-84721500D01*
X142186397Y-84736307D01*
X141883854Y-84795226D01*
X141751711Y-84839101D01*
X141591317Y-84892356D01*
X141591314Y-84892357D01*
X141591312Y-84892358D01*
X141313612Y-85026089D01*
X141055274Y-85194249D01*
X140820575Y-85394052D01*
X140613353Y-85622225D01*
X140437002Y-85875039D01*
X140294432Y-86148316D01*
X140187979Y-86437583D01*
X140119390Y-86738092D01*
X140089794Y-87044903D01*
X138176500Y-87044903D01*
X138176500Y-82928500D01*
X138193113Y-82866500D01*
X138238500Y-82821113D01*
X138300500Y-82804500D01*
X200789500Y-82804500D01*
X200851500Y-82821113D01*
G37*
%TD.AperFunction*%
%TD*%
M02*
