%TF.GenerationSoftware,KiCad,Pcbnew,7.0.1*%
%TF.CreationDate,2023-04-09T11:27:42-07:00*%
%TF.ProjectId,RS485-Module,52533438-352d-44d6-9f64-756c652e6b69,rev?*%
%TF.SameCoordinates,Original*%
%TF.FileFunction,Soldermask,Top*%
%TF.FilePolarity,Negative*%
%FSLAX46Y46*%
G04 Gerber Fmt 4.6, Leading zero omitted, Abs format (unit mm)*
G04 Created by KiCad (PCBNEW 7.0.1) date 2023-04-09 11:27:42*
%MOMM*%
%LPD*%
G01*
G04 APERTURE LIST*
%ADD10C,0.010000*%
%ADD11R,1.295400X0.558800*%
%ADD12R,1.020000X0.940000*%
%ADD13R,1.100000X1.000000*%
%ADD14R,0.965200X1.295400*%
%ADD15R,1.460500X0.558800*%
%ADD16R,0.940000X1.020000*%
%ADD17C,1.270000*%
%ADD18C,3.810000*%
%ADD19R,1.650000X1.650000*%
%ADD20C,1.650000*%
%ADD21R,0.685800X0.609600*%
%ADD22C,4.300000*%
G04 APERTURE END LIST*
%TO.C,P1*%
D10*
X142628200Y-94682200D02*
X140675800Y-94682200D01*
X140675800Y-93329800D01*
X142628200Y-93329800D01*
X142628200Y-94682200D01*
G36*
X142628200Y-94682200D02*
G01*
X140675800Y-94682200D01*
X140675800Y-93329800D01*
X142628200Y-93329800D01*
X142628200Y-94682200D01*
G37*
X146378200Y-95682200D02*
X144725800Y-95682200D01*
X144725800Y-94929800D01*
X146378200Y-94929800D01*
X146378200Y-95682200D01*
G36*
X146378200Y-95682200D02*
G01*
X144725800Y-95682200D01*
X144725800Y-94929800D01*
X146378200Y-94929800D01*
X146378200Y-95682200D01*
G37*
X146378200Y-96682200D02*
X144725800Y-96682200D01*
X144725800Y-95929800D01*
X146378200Y-95929800D01*
X146378200Y-96682200D01*
G36*
X146378200Y-96682200D02*
G01*
X144725800Y-96682200D01*
X144725800Y-95929800D01*
X146378200Y-95929800D01*
X146378200Y-96682200D01*
G37*
X146378200Y-97682200D02*
X144725800Y-97682200D01*
X144725800Y-96929800D01*
X146378200Y-96929800D01*
X146378200Y-97682200D01*
G36*
X146378200Y-97682200D02*
G01*
X144725800Y-97682200D01*
X144725800Y-96929800D01*
X146378200Y-96929800D01*
X146378200Y-97682200D01*
G37*
X146378200Y-98682200D02*
X144725800Y-98682200D01*
X144725800Y-97929800D01*
X146378200Y-97929800D01*
X146378200Y-98682200D01*
G36*
X146378200Y-98682200D02*
G01*
X144725800Y-98682200D01*
X144725800Y-97929800D01*
X146378200Y-97929800D01*
X146378200Y-98682200D01*
G37*
X146378200Y-99682200D02*
X144725800Y-99682200D01*
X144725800Y-98929800D01*
X146378200Y-98929800D01*
X146378200Y-99682200D01*
G36*
X146378200Y-99682200D02*
G01*
X144725800Y-99682200D01*
X144725800Y-98929800D01*
X146378200Y-98929800D01*
X146378200Y-99682200D01*
G37*
X146378200Y-100682200D02*
X144725800Y-100682200D01*
X144725800Y-99929800D01*
X146378200Y-99929800D01*
X146378200Y-100682200D01*
G36*
X146378200Y-100682200D02*
G01*
X144725800Y-100682200D01*
X144725800Y-99929800D01*
X146378200Y-99929800D01*
X146378200Y-100682200D01*
G37*
X146378200Y-101682200D02*
X144725800Y-101682200D01*
X144725800Y-100929800D01*
X146378200Y-100929800D01*
X146378200Y-101682200D01*
G36*
X146378200Y-101682200D02*
G01*
X144725800Y-101682200D01*
X144725800Y-100929800D01*
X146378200Y-100929800D01*
X146378200Y-101682200D01*
G37*
X146378200Y-102682200D02*
X144725800Y-102682200D01*
X144725800Y-101929800D01*
X146378200Y-101929800D01*
X146378200Y-102682200D01*
G36*
X146378200Y-102682200D02*
G01*
X144725800Y-102682200D01*
X144725800Y-101929800D01*
X146378200Y-101929800D01*
X146378200Y-102682200D01*
G37*
X142628200Y-104282200D02*
X140675800Y-104282200D01*
X140675800Y-102929800D01*
X142628200Y-102929800D01*
X142628200Y-104282200D01*
G36*
X142628200Y-104282200D02*
G01*
X140675800Y-104282200D01*
X140675800Y-102929800D01*
X142628200Y-102929800D01*
X142628200Y-104282200D01*
G37*
%TD*%
D11*
%TO.C,D2*%
X170751500Y-106934000D03*
X168846500Y-107884001D03*
X168846500Y-105983999D03*
%TD*%
D12*
%TO.C,R6*%
X166243000Y-107033000D03*
X166243000Y-108613000D03*
%TD*%
D13*
%TO.C,C1*%
X152234000Y-105156000D03*
X150534000Y-105156000D03*
%TD*%
D14*
%TO.C,D1*%
X172085000Y-97790000D03*
X175133000Y-97790000D03*
%TD*%
D15*
%TO.C,U1*%
X152469850Y-107823000D03*
X152469850Y-109093000D03*
X152469850Y-110363000D03*
X152469850Y-111633000D03*
X157918150Y-111633000D03*
X157918150Y-110363000D03*
X157918150Y-109093000D03*
X157918150Y-107823000D03*
%TD*%
D12*
%TO.C,R7*%
X166196092Y-112169000D03*
X166196092Y-110589000D03*
%TD*%
D16*
%TO.C,R5*%
X161008000Y-112268000D03*
X162588000Y-112268000D03*
%TD*%
%TO.C,R4*%
X161008000Y-110490000D03*
X162588000Y-110490000D03*
%TD*%
%TO.C,R3*%
X161008000Y-108712000D03*
X162588000Y-108712000D03*
%TD*%
%TO.C,R2*%
X161008000Y-106934000D03*
X162588000Y-106934000D03*
%TD*%
%TO.C,R1*%
X166596000Y-97790000D03*
X168176000Y-97790000D03*
%TD*%
D17*
%TO.C,P4*%
X185674000Y-104013000D03*
X183134000Y-102743000D03*
X185674000Y-101473000D03*
X183134000Y-100203000D03*
X185674000Y-98933000D03*
X183134000Y-97663000D03*
X185674000Y-96393000D03*
X183134000Y-95123000D03*
D18*
X192024000Y-105283000D03*
X192024000Y-93853000D03*
%TD*%
D19*
%TO.C,P3*%
X176784000Y-89408000D03*
D20*
X171704000Y-89408000D03*
%TD*%
D19*
%TO.C,P2*%
X163068000Y-89408000D03*
D20*
X157988000Y-89408000D03*
%TD*%
D21*
%TO.C,J8*%
X173253400Y-112649000D03*
X174371000Y-112649000D03*
%TD*%
%TO.C,J7*%
X173304200Y-105156000D03*
X174421800Y-105156000D03*
%TD*%
%TO.C,J6*%
X173304200Y-111125000D03*
X174421800Y-111125000D03*
%TD*%
%TO.C,J5*%
X173304200Y-108077000D03*
X174421800Y-108077000D03*
%TD*%
%TO.C,J4*%
X173304200Y-109601000D03*
X174421800Y-109601000D03*
%TD*%
%TO.C,J3*%
X173304200Y-106680000D03*
X174421800Y-106680000D03*
%TD*%
%TO.C,J2*%
X173253400Y-114173000D03*
X174371000Y-114173000D03*
%TD*%
%TO.C,J1*%
X173304200Y-103632000D03*
X174421800Y-103632000D03*
%TD*%
D22*
%TO.C,H4*%
X142494000Y-112014000D03*
%TD*%
%TO.C,H3*%
X196088000Y-112014000D03*
%TD*%
%TO.C,H2*%
X196342000Y-87122000D03*
%TD*%
%TO.C,H1*%
X142494000Y-87122000D03*
%TD*%
D11*
%TO.C,D3*%
X168973500Y-110682999D03*
X168973500Y-112583001D03*
X170878500Y-111633000D03*
%TD*%
M02*
