M48
; DRILL file {KiCad 7.0.1} date Sun Apr  9 11:27:59 2023
; FORMAT={-:-/ absolute / inch / decimal}
; #@! TF.CreationDate,2023-04-09T11:27:59-07:00
; #@! TF.GenerationSoftware,Kicad,Pcbnew,7.0.1
; #@! TF.FileFunction,Plated,1,4,PTH
FMAT,2
INCH
; #@! TA.AperFunction,Plated,PTH,ViaDrill
T1C0.0120
; #@! TA.AperFunction,Plated,PTH,ComponentDrill
T2C0.0300
; #@! TA.AperFunction,Plated,PTH,ComponentDrill
T3C0.0433
; #@! TA.AperFunction,Plated,PTH,ComponentDrill
T4C0.1300
%
G90
G05
T1
X5.805Y-3.985
X5.855Y-3.87
X5.855Y-3.91
X5.86Y-3.705
X5.875Y-4.14
X5.925Y-4.19
X5.935Y-4.38
X5.985Y-4.455
X5.995Y-4.195
X6.035Y-4.14
X6.465Y-4.28
X6.47Y-4.42
X6.475Y-4.35
X6.51Y-3.85
X6.765Y-4.145
X6.78Y-4.395
X6.95Y-3.85
X6.98Y-4.14
X6.98Y-4.435
X7.025Y-4.255
X7.025Y-4.375
T2
X7.21Y-3.745
X7.21Y-3.845
X7.21Y-3.945
X7.21Y-4.045
X7.31Y-3.795
X7.31Y-3.895
X7.31Y-3.995
X7.31Y-4.095
T3
X6.22Y-3.52
X6.42Y-3.52
X6.76Y-3.52
X6.96Y-3.52
T4
X7.56Y-3.695
X7.56Y-4.145
T0
M30
